<mxfile host="Electron" agent="Mozilla/5.0 (Windows NT 10.0; Win64; x64) AppleWebKit/537.36 (KHTML, like Gecko) draw.io/28.1.2 Chrome/138.0.7204.243 Electron/37.4.0 Safari/537.36" version="28.1.2">
  <diagram name="Page-1" id="C0ikqstWqos4hZsiy0DZ">
    <mxGraphModel dx="4944" dy="2118" grid="1" gridSize="10" guides="1" tooltips="1" connect="1" arrows="1" fold="1" page="1" pageScale="1" pageWidth="850" pageHeight="1100" math="0" shadow="0">
      <root>
        <mxCell id="0" />
        <mxCell id="1" parent="0" />
        <mxCell id="yLuNLy4TpHZ7oGF-VzOZ-5" style="edgeStyle=orthogonalEdgeStyle;rounded=0;orthogonalLoop=1;jettySize=auto;html=1;" parent="1" source="yLuNLy4TpHZ7oGF-VzOZ-2" target="yLuNLy4TpHZ7oGF-VzOZ-3" edge="1">
          <mxGeometry relative="1" as="geometry" />
        </mxCell>
        <mxCell id="yLuNLy4TpHZ7oGF-VzOZ-2" value="Start" style="strokeWidth=2;html=1;shape=mxgraph.flowchart.start_1;whiteSpace=wrap;" parent="1" vertex="1">
          <mxGeometry x="325" width="100" height="40" as="geometry" />
        </mxCell>
        <mxCell id="yLuNLy4TpHZ7oGF-VzOZ-6" style="edgeStyle=orthogonalEdgeStyle;rounded=0;orthogonalLoop=1;jettySize=auto;html=1;" parent="1" source="yLuNLy4TpHZ7oGF-VzOZ-3" target="yLuNLy4TpHZ7oGF-VzOZ-4" edge="1">
          <mxGeometry relative="1" as="geometry" />
        </mxCell>
        <mxCell id="yLuNLy4TpHZ7oGF-VzOZ-3" value="USN = &quot;arya&quot;" style="rounded=1;whiteSpace=wrap;html=1;absoluteArcSize=1;arcSize=14;strokeWidth=2;" parent="1" vertex="1">
          <mxGeometry x="325" y="70" width="100" height="30" as="geometry" />
        </mxCell>
        <mxCell id="yLuNLy4TpHZ7oGF-VzOZ-8" style="edgeStyle=orthogonalEdgeStyle;rounded=0;orthogonalLoop=1;jettySize=auto;html=1;" parent="1" source="yLuNLy4TpHZ7oGF-VzOZ-4" target="yLuNLy4TpHZ7oGF-VzOZ-7" edge="1">
          <mxGeometry relative="1" as="geometry" />
        </mxCell>
        <mxCell id="yLuNLy4TpHZ7oGF-VzOZ-4" value="PW = &quot;066&quot;" style="rounded=1;whiteSpace=wrap;html=1;absoluteArcSize=1;arcSize=14;strokeWidth=2;" parent="1" vertex="1">
          <mxGeometry x="325" y="120" width="100" height="30" as="geometry" />
        </mxCell>
        <mxCell id="yLuNLy4TpHZ7oGF-VzOZ-11" style="edgeStyle=orthogonalEdgeStyle;rounded=0;orthogonalLoop=1;jettySize=auto;html=1;" parent="1" source="yLuNLy4TpHZ7oGF-VzOZ-7" target="yLuNLy4TpHZ7oGF-VzOZ-9" edge="1">
          <mxGeometry relative="1" as="geometry" />
        </mxCell>
        <mxCell id="yLuNLy4TpHZ7oGF-VzOZ-7" value="Output &quot;=== LOGIN&lt;div&gt;ACCOUNT ===&quot;&lt;/div&gt;" style="shape=parallelogram;html=1;strokeWidth=2;perimeter=parallelogramPerimeter;whiteSpace=wrap;rounded=1;arcSize=12;size=0.23;" parent="1" vertex="1">
          <mxGeometry x="295" y="180" width="160" height="40" as="geometry" />
        </mxCell>
        <mxCell id="yLuNLy4TpHZ7oGF-VzOZ-12" style="edgeStyle=orthogonalEdgeStyle;rounded=0;orthogonalLoop=1;jettySize=auto;html=1;" parent="1" source="yLuNLy4TpHZ7oGF-VzOZ-9" target="yLuNLy4TpHZ7oGF-VzOZ-10" edge="1">
          <mxGeometry relative="1" as="geometry" />
        </mxCell>
        <mxCell id="yLuNLy4TpHZ7oGF-VzOZ-9" value="Input&amp;nbsp; Username" style="shape=parallelogram;html=1;strokeWidth=2;perimeter=parallelogramPerimeter;whiteSpace=wrap;rounded=1;arcSize=12;size=0.23;" parent="1" vertex="1">
          <mxGeometry x="295.63" y="250" width="158.75" height="20" as="geometry" />
        </mxCell>
        <mxCell id="yLuNLy4TpHZ7oGF-VzOZ-14" style="edgeStyle=orthogonalEdgeStyle;rounded=0;orthogonalLoop=1;jettySize=auto;html=1;" parent="1" source="yLuNLy4TpHZ7oGF-VzOZ-10" target="yLuNLy4TpHZ7oGF-VzOZ-13" edge="1">
          <mxGeometry relative="1" as="geometry" />
        </mxCell>
        <mxCell id="yLuNLy4TpHZ7oGF-VzOZ-10" value="Input Password" style="shape=parallelogram;html=1;strokeWidth=2;perimeter=parallelogramPerimeter;whiteSpace=wrap;rounded=1;arcSize=12;size=0.23;" parent="1" vertex="1">
          <mxGeometry x="295" y="290" width="160" height="20" as="geometry" />
        </mxCell>
        <mxCell id="yLuNLy4TpHZ7oGF-VzOZ-17" style="edgeStyle=orthogonalEdgeStyle;rounded=0;orthogonalLoop=1;jettySize=auto;html=1;entryX=0.5;entryY=0;entryDx=0;entryDy=0;" parent="1" source="yLuNLy4TpHZ7oGF-VzOZ-13" target="yLuNLy4TpHZ7oGF-VzOZ-15" edge="1">
          <mxGeometry relative="1" as="geometry" />
        </mxCell>
        <mxCell id="yLuNLy4TpHZ7oGF-VzOZ-20" style="edgeStyle=orthogonalEdgeStyle;rounded=0;orthogonalLoop=1;jettySize=auto;html=1;" parent="1" source="yLuNLy4TpHZ7oGF-VzOZ-13" target="yLuNLy4TpHZ7oGF-VzOZ-19" edge="1">
          <mxGeometry relative="1" as="geometry" />
        </mxCell>
        <mxCell id="yLuNLy4TpHZ7oGF-VzOZ-13" value="Username&lt;div&gt;&amp;nbsp;!= USN &lt;strong data-end=&quot;219&quot; data-start=&quot;212&quot;&gt;dan&lt;/strong&gt; Password&amp;nbsp;&lt;/div&gt;&lt;div&gt;= PW&lt;/div&gt;" style="strokeWidth=2;html=1;shape=mxgraph.flowchart.decision;whiteSpace=wrap;" parent="1" vertex="1">
          <mxGeometry x="320" y="335" width="110" height="110" as="geometry" />
        </mxCell>
        <mxCell id="yLuNLy4TpHZ7oGF-VzOZ-15" value="Output&quot;Username salah!&quot;" style="shape=parallelogram;html=1;strokeWidth=2;perimeter=parallelogramPerimeter;whiteSpace=wrap;rounded=1;arcSize=12;size=0.23;" parent="1" vertex="1">
          <mxGeometry x="440" y="418" width="190" height="30" as="geometry" />
        </mxCell>
        <mxCell id="yLuNLy4TpHZ7oGF-VzOZ-18" value="true" style="text;html=1;align=center;verticalAlign=middle;resizable=0;points=[];autosize=1;strokeColor=none;fillColor=none;" parent="1" vertex="1">
          <mxGeometry x="450" y="365" width="40" height="30" as="geometry" />
        </mxCell>
        <mxCell id="yLuNLy4TpHZ7oGF-VzOZ-26" style="edgeStyle=orthogonalEdgeStyle;rounded=0;orthogonalLoop=1;jettySize=auto;html=1;" parent="1" source="yLuNLy4TpHZ7oGF-VzOZ-19" target="yLuNLy4TpHZ7oGF-VzOZ-23" edge="1">
          <mxGeometry relative="1" as="geometry" />
        </mxCell>
        <mxCell id="yLuNLy4TpHZ7oGF-VzOZ-32" style="edgeStyle=orthogonalEdgeStyle;rounded=0;orthogonalLoop=1;jettySize=auto;html=1;entryX=0.5;entryY=0;entryDx=0;entryDy=0;" parent="1" source="yLuNLy4TpHZ7oGF-VzOZ-19" target="yLuNLy4TpHZ7oGF-VzOZ-30" edge="1">
          <mxGeometry relative="1" as="geometry" />
        </mxCell>
        <mxCell id="yLuNLy4TpHZ7oGF-VzOZ-19" value="Username&amp;nbsp;&lt;div&gt;= USN &lt;strong data-end=&quot;288&quot; data-start=&quot;281&quot;&gt;dan&lt;/strong&gt; Password&amp;nbsp;&lt;div&gt;!= PW&lt;/div&gt;&lt;/div&gt;" style="strokeWidth=2;html=1;shape=mxgraph.flowchart.decision;whiteSpace=wrap;" parent="1" vertex="1">
          <mxGeometry x="175" y="335" width="110" height="110" as="geometry" />
        </mxCell>
        <mxCell id="yLuNLy4TpHZ7oGF-VzOZ-21" value="false" style="text;html=1;align=center;verticalAlign=middle;resizable=0;points=[];autosize=1;strokeColor=none;fillColor=none;" parent="1" vertex="1">
          <mxGeometry x="275" y="350" width="50" height="30" as="geometry" />
        </mxCell>
        <mxCell id="yLuNLy4TpHZ7oGF-VzOZ-23" value="Username&lt;div&gt;&amp;nbsp;!= USN &lt;strong data-end=&quot;357&quot; data-start=&quot;350&quot;&gt;dan&lt;/strong&gt; Password&lt;/div&gt;&lt;div&gt;&amp;nbsp;!= PW&lt;/div&gt;" style="strokeWidth=2;html=1;shape=mxgraph.flowchart.decision;whiteSpace=wrap;" parent="1" vertex="1">
          <mxGeometry x="25" y="335" width="110" height="110" as="geometry" />
        </mxCell>
        <mxCell id="yLuNLy4TpHZ7oGF-VzOZ-40" style="edgeStyle=orthogonalEdgeStyle;rounded=0;orthogonalLoop=1;jettySize=auto;html=1;" parent="1" source="yLuNLy4TpHZ7oGF-VzOZ-24" target="yLuNLy4TpHZ7oGF-VzOZ-37" edge="1">
          <mxGeometry relative="1" as="geometry" />
        </mxCell>
        <mxCell id="yLuNLy4TpHZ7oGF-VzOZ-24" value="Username&lt;div&gt;&amp;nbsp;= USN &lt;strong data-end=&quot;439&quot; data-start=&quot;432&quot;&gt;dan&lt;/strong&gt; Password&amp;nbsp;&lt;/div&gt;&lt;div&gt;= PW&lt;/div&gt;" style="strokeWidth=2;html=1;shape=mxgraph.flowchart.decision;whiteSpace=wrap;" parent="1" vertex="1">
          <mxGeometry x="-120" y="335" width="110" height="110" as="geometry" />
        </mxCell>
        <mxCell id="yLuNLy4TpHZ7oGF-VzOZ-28" value="false" style="text;html=1;align=center;verticalAlign=middle;resizable=0;points=[];autosize=1;strokeColor=none;fillColor=none;" parent="1" vertex="1">
          <mxGeometry x="130.93" y="350" width="50" height="30" as="geometry" />
        </mxCell>
        <mxCell id="yLuNLy4TpHZ7oGF-VzOZ-29" value="false" style="text;html=1;align=center;verticalAlign=middle;resizable=0;points=[];autosize=1;strokeColor=none;fillColor=none;" parent="1" vertex="1">
          <mxGeometry x="-25" y="350" width="50" height="30" as="geometry" />
        </mxCell>
        <mxCell id="yLuNLy4TpHZ7oGF-VzOZ-30" value="Output&quot;Password&amp;nbsp;&lt;div&gt;salah!&quot;&lt;/div&gt;" style="shape=parallelogram;html=1;strokeWidth=2;perimeter=parallelogramPerimeter;whiteSpace=wrap;rounded=1;arcSize=12;size=0.23;" parent="1" vertex="1">
          <mxGeometry x="150" y="470" width="160" height="40" as="geometry" />
        </mxCell>
        <mxCell id="yLuNLy4TpHZ7oGF-VzOZ-33" value="true" style="text;html=1;align=center;verticalAlign=middle;resizable=0;points=[];autosize=1;strokeColor=none;fillColor=none;" parent="1" vertex="1">
          <mxGeometry x="235" y="440" width="40" height="30" as="geometry" />
        </mxCell>
        <mxCell id="yLuNLy4TpHZ7oGF-VzOZ-34" value="Output&quot;sername dan Password salah!&quot;" style="shape=parallelogram;html=1;strokeWidth=2;perimeter=parallelogramPerimeter;whiteSpace=wrap;rounded=1;arcSize=12;size=0.23;" parent="1" vertex="1">
          <mxGeometry x="-9.999999999999996" y="470" width="160" height="40" as="geometry" />
        </mxCell>
        <mxCell id="yLuNLy4TpHZ7oGF-VzOZ-36" value="true" style="text;html=1;align=center;verticalAlign=middle;resizable=0;points=[];autosize=1;strokeColor=none;fillColor=none;" parent="1" vertex="1">
          <mxGeometry x="72.5" y="440" width="40" height="30" as="geometry" />
        </mxCell>
        <mxCell id="yLuNLy4TpHZ7oGF-VzOZ-37" value="Output&quot;Login&amp;nbsp;&lt;div&gt;berhasil! selamat&lt;/div&gt;&lt;div&gt;&amp;nbsp;datang&quot;&lt;/div&gt;" style="shape=parallelogram;html=1;strokeWidth=2;perimeter=parallelogramPerimeter;whiteSpace=wrap;rounded=1;arcSize=12;size=0.23;" parent="1" vertex="1">
          <mxGeometry x="-145" y="580" width="160" height="50" as="geometry" />
        </mxCell>
        <mxCell id="yLuNLy4TpHZ7oGF-VzOZ-41" value="true" style="text;html=1;align=center;verticalAlign=middle;resizable=0;points=[];autosize=1;strokeColor=none;fillColor=none;" parent="1" vertex="1">
          <mxGeometry x="-50" y="520" width="40" height="30" as="geometry" />
        </mxCell>
        <mxCell id="yLuNLy4TpHZ7oGF-VzOZ-44" style="edgeStyle=orthogonalEdgeStyle;rounded=0;orthogonalLoop=1;jettySize=auto;html=1;exitX=0.5;exitY=1;exitDx=0;exitDy=0;" parent="1" source="yLuNLy4TpHZ7oGF-VzOZ-37" target="yLuNLy4TpHZ7oGF-VzOZ-37" edge="1">
          <mxGeometry relative="1" as="geometry" />
        </mxCell>
        <mxCell id="yLuNLy4TpHZ7oGF-VzOZ-45" value="" style="verticalLabelPosition=bottom;verticalAlign=top;html=1;shape=offPageConnector;rounded=0;size=0.5833333333333334;" parent="1" vertex="1">
          <mxGeometry x="75" y="580" width="60" height="60" as="geometry" />
        </mxCell>
        <mxCell id="FXJXPnf7FUrhk9hKkWCc-3" style="edgeStyle=orthogonalEdgeStyle;rounded=0;orthogonalLoop=1;jettySize=auto;html=1;" parent="1" source="FXJXPnf7FUrhk9hKkWCc-1" target="FXJXPnf7FUrhk9hKkWCc-2" edge="1">
          <mxGeometry relative="1" as="geometry" />
        </mxCell>
        <mxCell id="FXJXPnf7FUrhk9hKkWCc-1" value="" style="verticalLabelPosition=bottom;verticalAlign=top;html=1;shape=offPageConnector;rounded=0;size=0.6153846153846154;" parent="1" vertex="1">
          <mxGeometry x="72.5" y="740" width="65" height="65" as="geometry" />
        </mxCell>
        <mxCell id="FXJXPnf7FUrhk9hKkWCc-5" style="edgeStyle=orthogonalEdgeStyle;rounded=0;orthogonalLoop=1;jettySize=auto;html=1;entryX=0.5;entryY=0;entryDx=0;entryDy=0;" parent="1" source="FXJXPnf7FUrhk9hKkWCc-2" target="FXJXPnf7FUrhk9hKkWCc-4" edge="1">
          <mxGeometry relative="1" as="geometry" />
        </mxCell>
        <mxCell id="FXJXPnf7FUrhk9hKkWCc-2" value="Output&quot;===&amp;nbsp;&lt;div&gt;&lt;span style=&quot;background-color: transparent; color: light-dark(rgb(0, 0, 0), rgb(255, 255, 255));&quot;&gt;KALKULATOR&lt;/span&gt;&lt;/div&gt;&lt;div&gt;&lt;span style=&quot;background-color: transparent; color: light-dark(rgb(0, 0, 0), rgb(255, 255, 255));&quot;&gt;===&quot;&lt;/span&gt;&lt;/div&gt;" style="shape=parallelogram;html=1;strokeWidth=2;perimeter=parallelogramPerimeter;whiteSpace=wrap;rounded=1;arcSize=12;size=0.23;" parent="1" vertex="1">
          <mxGeometry x="25" y="830" width="160" height="50" as="geometry" />
        </mxCell>
        <mxCell id="FXJXPnf7FUrhk9hKkWCc-10" style="edgeStyle=orthogonalEdgeStyle;rounded=0;orthogonalLoop=1;jettySize=auto;html=1;" parent="1" source="FXJXPnf7FUrhk9hKkWCc-4" target="FXJXPnf7FUrhk9hKkWCc-7" edge="1">
          <mxGeometry relative="1" as="geometry" />
        </mxCell>
        <mxCell id="FXJXPnf7FUrhk9hKkWCc-4" value="Output&quot;1. Konversi&amp;nbsp;&lt;div&gt;&lt;span style=&quot;background-color: transparent; color: light-dark(rgb(0, 0, 0), rgb(255, 255, 255));&quot;&gt;Panjang&quot;&lt;/span&gt;&lt;/div&gt;" style="shape=parallelogram;html=1;strokeWidth=2;perimeter=parallelogramPerimeter;whiteSpace=wrap;rounded=1;arcSize=12;size=0.23;" parent="1" vertex="1">
          <mxGeometry x="25" y="900" width="160" height="40" as="geometry" />
        </mxCell>
        <mxCell id="FXJXPnf7FUrhk9hKkWCc-6" style="edgeStyle=orthogonalEdgeStyle;rounded=0;orthogonalLoop=1;jettySize=auto;html=1;exitX=0.5;exitY=1;exitDx=0;exitDy=0;" parent="1" source="FXJXPnf7FUrhk9hKkWCc-4" target="FXJXPnf7FUrhk9hKkWCc-4" edge="1">
          <mxGeometry relative="1" as="geometry" />
        </mxCell>
        <mxCell id="FXJXPnf7FUrhk9hKkWCc-12" style="edgeStyle=orthogonalEdgeStyle;rounded=0;orthogonalLoop=1;jettySize=auto;html=1;" parent="1" source="FXJXPnf7FUrhk9hKkWCc-7" target="FXJXPnf7FUrhk9hKkWCc-11" edge="1">
          <mxGeometry relative="1" as="geometry" />
        </mxCell>
        <mxCell id="FXJXPnf7FUrhk9hKkWCc-7" value="Output&quot;2. Konversi&amp;nbsp;&lt;div&gt;&lt;span style=&quot;background-color: transparent; color: light-dark(rgb(0, 0, 0), rgb(255, 255, 255));&quot;&gt;Massa&quot;&lt;/span&gt;&lt;/div&gt;" style="shape=parallelogram;html=1;strokeWidth=2;perimeter=parallelogramPerimeter;whiteSpace=wrap;rounded=1;arcSize=12;size=0.23;" parent="1" vertex="1">
          <mxGeometry x="25" y="970" width="160" height="40" as="geometry" />
        </mxCell>
        <mxCell id="FXJXPnf7FUrhk9hKkWCc-14" style="edgeStyle=orthogonalEdgeStyle;rounded=0;orthogonalLoop=1;jettySize=auto;html=1;" parent="1" source="FXJXPnf7FUrhk9hKkWCc-11" target="FXJXPnf7FUrhk9hKkWCc-13" edge="1">
          <mxGeometry relative="1" as="geometry" />
        </mxCell>
        <mxCell id="FXJXPnf7FUrhk9hKkWCc-11" value="Output&quot;3. Konversi&lt;div&gt;&lt;span style=&quot;background-color: transparent; color: light-dark(rgb(0, 0, 0), rgb(255, 255, 255));&quot;&gt;Suhu&quot;&lt;/span&gt;&lt;/div&gt;" style="shape=parallelogram;html=1;strokeWidth=2;perimeter=parallelogramPerimeter;whiteSpace=wrap;rounded=1;arcSize=12;size=0.23;" parent="1" vertex="1">
          <mxGeometry x="25" y="1040" width="160" height="40" as="geometry" />
        </mxCell>
        <mxCell id="FXJXPnf7FUrhk9hKkWCc-16" style="edgeStyle=orthogonalEdgeStyle;rounded=0;orthogonalLoop=1;jettySize=auto;html=1;" parent="1" source="FXJXPnf7FUrhk9hKkWCc-13" target="FXJXPnf7FUrhk9hKkWCc-15" edge="1">
          <mxGeometry relative="1" as="geometry" />
        </mxCell>
        <mxCell id="FXJXPnf7FUrhk9hKkWCc-13" value="Output&quot;4. Konversi&amp;nbsp;&lt;div&gt;&lt;span style=&quot;background-color: transparent; color: light-dark(rgb(0, 0, 0), rgb(255, 255, 255));&quot;&gt;Waktu&quot;&lt;/span&gt;&lt;/div&gt;" style="shape=parallelogram;html=1;strokeWidth=2;perimeter=parallelogramPerimeter;whiteSpace=wrap;rounded=1;arcSize=12;size=0.23;" parent="1" vertex="1">
          <mxGeometry x="25" y="1110" width="160" height="40" as="geometry" />
        </mxCell>
        <mxCell id="FXJXPnf7FUrhk9hKkWCc-19" style="edgeStyle=orthogonalEdgeStyle;rounded=0;orthogonalLoop=1;jettySize=auto;html=1;" parent="1" source="FXJXPnf7FUrhk9hKkWCc-15" target="FXJXPnf7FUrhk9hKkWCc-17" edge="1">
          <mxGeometry relative="1" as="geometry" />
        </mxCell>
        <mxCell id="FXJXPnf7FUrhk9hKkWCc-15" value="Output&quot;5. Konversi&amp;nbsp;&lt;div&gt;&lt;span style=&quot;background-color: transparent; color: light-dark(rgb(0, 0, 0), rgb(255, 255, 255));&quot;&gt;Mata Uang&quot;&lt;/span&gt;&lt;/div&gt;" style="shape=parallelogram;html=1;strokeWidth=2;perimeter=parallelogramPerimeter;whiteSpace=wrap;rounded=1;arcSize=12;size=0.23;" parent="1" vertex="1">
          <mxGeometry x="25" y="1180" width="160" height="40" as="geometry" />
        </mxCell>
        <mxCell id="FXJXPnf7FUrhk9hKkWCc-21" style="edgeStyle=orthogonalEdgeStyle;rounded=0;orthogonalLoop=1;jettySize=auto;html=1;entryX=0.5;entryY=0;entryDx=0;entryDy=0;" parent="1" source="FXJXPnf7FUrhk9hKkWCc-17" target="FXJXPnf7FUrhk9hKkWCc-20" edge="1">
          <mxGeometry relative="1" as="geometry" />
        </mxCell>
        <mxCell id="FXJXPnf7FUrhk9hKkWCc-17" value="Output&quot;Pilih&lt;div&gt;&lt;span style=&quot;background-color: transparent; color: light-dark(rgb(0, 0, 0), rgb(255, 255, 255));&quot;&gt;kalkulator&quot;&lt;/span&gt;&lt;/div&gt;" style="shape=parallelogram;html=1;strokeWidth=2;perimeter=parallelogramPerimeter;whiteSpace=wrap;rounded=1;arcSize=12;size=0.23;" parent="1" vertex="1">
          <mxGeometry x="25" y="1250" width="160" height="40" as="geometry" />
        </mxCell>
        <mxCell id="FXJXPnf7FUrhk9hKkWCc-20" value="Input pil" style="shape=parallelogram;html=1;strokeWidth=2;perimeter=parallelogramPerimeter;whiteSpace=wrap;rounded=1;arcSize=12;size=0.23;" parent="1" vertex="1">
          <mxGeometry x="25" y="1310" width="160" height="30" as="geometry" />
        </mxCell>
        <mxCell id="FXJXPnf7FUrhk9hKkWCc-26" style="edgeStyle=orthogonalEdgeStyle;rounded=0;orthogonalLoop=1;jettySize=auto;html=1;entryX=0.5;entryY=0;entryDx=0;entryDy=0;" parent="1" source="FXJXPnf7FUrhk9hKkWCc-22" target="FXJXPnf7FUrhk9hKkWCc-25" edge="1">
          <mxGeometry relative="1" as="geometry" />
        </mxCell>
        <mxCell id="FXJXPnf7FUrhk9hKkWCc-22" value="pil == 1" style="strokeWidth=2;html=1;shape=mxgraph.flowchart.decision;whiteSpace=wrap;" parent="1" vertex="1">
          <mxGeometry x="70" y="1370" width="70" height="80" as="geometry" />
        </mxCell>
        <mxCell id="FXJXPnf7FUrhk9hKkWCc-24" style="edgeStyle=orthogonalEdgeStyle;rounded=0;orthogonalLoop=1;jettySize=auto;html=1;entryX=0.5;entryY=0;entryDx=0;entryDy=0;entryPerimeter=0;" parent="1" source="FXJXPnf7FUrhk9hKkWCc-20" target="FXJXPnf7FUrhk9hKkWCc-22" edge="1">
          <mxGeometry relative="1" as="geometry" />
        </mxCell>
        <mxCell id="FXJXPnf7FUrhk9hKkWCc-29" style="edgeStyle=orthogonalEdgeStyle;rounded=0;orthogonalLoop=1;jettySize=auto;html=1;" parent="1" source="FXJXPnf7FUrhk9hKkWCc-25" target="FXJXPnf7FUrhk9hKkWCc-27" edge="1">
          <mxGeometry relative="1" as="geometry" />
        </mxCell>
        <mxCell id="FXJXPnf7FUrhk9hKkWCc-25" value="Output&quot;Konversi&lt;div&gt;&lt;span style=&quot;background-color: transparent; color: light-dark(rgb(0, 0, 0), rgb(255, 255, 255));&quot;&gt;panjang ke meter&quot;&lt;/span&gt;&lt;/div&gt;" style="shape=parallelogram;html=1;strokeWidth=2;perimeter=parallelogramPerimeter;whiteSpace=wrap;rounded=1;arcSize=12;size=0.23;" parent="1" vertex="1">
          <mxGeometry x="150" y="1430" width="160" height="30" as="geometry" />
        </mxCell>
        <mxCell id="FXJXPnf7FUrhk9hKkWCc-30" style="edgeStyle=orthogonalEdgeStyle;rounded=0;orthogonalLoop=1;jettySize=auto;html=1;" parent="1" source="FXJXPnf7FUrhk9hKkWCc-27" target="FXJXPnf7FUrhk9hKkWCc-28" edge="1">
          <mxGeometry relative="1" as="geometry" />
        </mxCell>
        <mxCell id="FXJXPnf7FUrhk9hKkWCc-27" value="Output&quot;1.Kaki(feet)&lt;div&gt;&lt;span style=&quot;background-color: transparent; color: light-dark(rgb(0, 0, 0), rgb(255, 255, 255));&quot;&gt;-&amp;gt; meter&quot;&lt;/span&gt;&lt;/div&gt;" style="shape=parallelogram;html=1;strokeWidth=2;perimeter=parallelogramPerimeter;whiteSpace=wrap;rounded=1;arcSize=12;size=0.23;" parent="1" vertex="1">
          <mxGeometry x="150" y="1480" width="160" height="30" as="geometry" />
        </mxCell>
        <mxCell id="FXJXPnf7FUrhk9hKkWCc-33" style="edgeStyle=orthogonalEdgeStyle;rounded=0;orthogonalLoop=1;jettySize=auto;html=1;entryX=0.5;entryY=0;entryDx=0;entryDy=0;" parent="1" source="FXJXPnf7FUrhk9hKkWCc-28" target="FXJXPnf7FUrhk9hKkWCc-32" edge="1">
          <mxGeometry relative="1" as="geometry" />
        </mxCell>
        <mxCell id="FXJXPnf7FUrhk9hKkWCc-28" value="Output&quot;2.Kilometer&lt;div&gt;&lt;span style=&quot;background-color: transparent; color: light-dark(rgb(0, 0, 0), rgb(255, 255, 255));&quot;&gt;-&amp;gt; meter&quot;&lt;/span&gt;&lt;/div&gt;" style="shape=parallelogram;html=1;strokeWidth=2;perimeter=parallelogramPerimeter;whiteSpace=wrap;rounded=1;arcSize=12;size=0.23;" parent="1" vertex="1">
          <mxGeometry x="150" y="1539" width="160" height="30" as="geometry" />
        </mxCell>
        <mxCell id="FXJXPnf7FUrhk9hKkWCc-31" style="edgeStyle=orthogonalEdgeStyle;rounded=0;orthogonalLoop=1;jettySize=auto;html=1;exitX=0.5;exitY=1;exitDx=0;exitDy=0;" parent="1" source="FXJXPnf7FUrhk9hKkWCc-28" target="FXJXPnf7FUrhk9hKkWCc-28" edge="1">
          <mxGeometry relative="1" as="geometry" />
        </mxCell>
        <mxCell id="FXJXPnf7FUrhk9hKkWCc-35" style="edgeStyle=orthogonalEdgeStyle;rounded=0;orthogonalLoop=1;jettySize=auto;html=1;" parent="1" source="FXJXPnf7FUrhk9hKkWCc-32" target="FXJXPnf7FUrhk9hKkWCc-34" edge="1">
          <mxGeometry relative="1" as="geometry" />
        </mxCell>
        <mxCell id="FXJXPnf7FUrhk9hKkWCc-32" value="Output&quot;3.&lt;span style=&quot;background-color: transparent; color: light-dark(rgb(0, 0, 0), rgb(255, 255, 255));&quot;&gt;Centimeter&lt;/span&gt;&lt;div&gt;&lt;div&gt;-&amp;gt; meter&quot;&lt;/div&gt;&lt;/div&gt;" style="shape=parallelogram;html=1;strokeWidth=2;perimeter=parallelogramPerimeter;whiteSpace=wrap;rounded=1;arcSize=12;size=0.23;" parent="1" vertex="1">
          <mxGeometry x="150" y="1590" width="160" height="40" as="geometry" />
        </mxCell>
        <mxCell id="FXJXPnf7FUrhk9hKkWCc-37" style="edgeStyle=orthogonalEdgeStyle;rounded=0;orthogonalLoop=1;jettySize=auto;html=1;" parent="1" source="FXJXPnf7FUrhk9hKkWCc-34" target="FXJXPnf7FUrhk9hKkWCc-36" edge="1">
          <mxGeometry relative="1" as="geometry" />
        </mxCell>
        <mxCell id="FXJXPnf7FUrhk9hKkWCc-34" value="Output&quot;Pilih jenis&lt;div&gt;konversi&quot;&lt;/div&gt;" style="shape=parallelogram;html=1;strokeWidth=2;perimeter=parallelogramPerimeter;whiteSpace=wrap;rounded=1;arcSize=12;size=0.23;" parent="1" vertex="1">
          <mxGeometry x="150" y="1650" width="160" height="30" as="geometry" />
        </mxCell>
        <mxCell id="FXJXPnf7FUrhk9hKkWCc-39" style="edgeStyle=orthogonalEdgeStyle;rounded=0;orthogonalLoop=1;jettySize=auto;html=1;entryX=0.5;entryY=0;entryDx=0;entryDy=0;" parent="1" source="FXJXPnf7FUrhk9hKkWCc-36" target="FXJXPnf7FUrhk9hKkWCc-38" edge="1">
          <mxGeometry relative="1" as="geometry" />
        </mxCell>
        <mxCell id="FXJXPnf7FUrhk9hKkWCc-36" value="Input con" style="shape=parallelogram;html=1;strokeWidth=2;perimeter=parallelogramPerimeter;whiteSpace=wrap;rounded=1;arcSize=12;size=0.23;" parent="1" vertex="1">
          <mxGeometry x="150" y="1700" width="160" height="20" as="geometry" />
        </mxCell>
        <mxCell id="FXJXPnf7FUrhk9hKkWCc-41" style="edgeStyle=orthogonalEdgeStyle;rounded=0;orthogonalLoop=1;jettySize=auto;html=1;entryX=0.5;entryY=0;entryDx=0;entryDy=0;" parent="1" source="FXJXPnf7FUrhk9hKkWCc-38" target="FXJXPnf7FUrhk9hKkWCc-40" edge="1">
          <mxGeometry relative="1" as="geometry" />
        </mxCell>
        <mxCell id="FXJXPnf7FUrhk9hKkWCc-38" value="Output&quot;Masukkan&lt;div&gt;&amp;nbsp;nila&lt;span style=&quot;background-color: transparent; color: light-dark(rgb(0, 0, 0), rgb(255, 255, 255));&quot;&gt;i&quot;&lt;/span&gt;&lt;/div&gt;" style="shape=parallelogram;html=1;strokeWidth=2;perimeter=parallelogramPerimeter;whiteSpace=wrap;rounded=1;arcSize=12;size=0.23;" parent="1" vertex="1">
          <mxGeometry x="150" y="1740" width="160" height="30" as="geometry" />
        </mxCell>
        <mxCell id="FXJXPnf7FUrhk9hKkWCc-52" style="edgeStyle=orthogonalEdgeStyle;rounded=0;orthogonalLoop=1;jettySize=auto;html=1;entryX=0.5;entryY=0;entryDx=0;entryDy=0;" parent="1" source="FXJXPnf7FUrhk9hKkWCc-40" target="FXJXPnf7FUrhk9hKkWCc-48" edge="1">
          <mxGeometry relative="1" as="geometry" />
        </mxCell>
        <mxCell id="FXJXPnf7FUrhk9hKkWCc-40" value="Input nilai" style="shape=parallelogram;html=1;strokeWidth=2;perimeter=parallelogramPerimeter;whiteSpace=wrap;rounded=1;arcSize=12;size=0.23;" parent="1" vertex="1">
          <mxGeometry x="150" y="1800" width="160" height="30" as="geometry" />
        </mxCell>
        <mxCell id="FXJXPnf7FUrhk9hKkWCc-48" value="" style="verticalLabelPosition=bottom;verticalAlign=top;html=1;shape=offPageConnector;rounded=0;size=0.6153846153846154;" parent="1" vertex="1">
          <mxGeometry x="320" y="1840" width="65" height="65" as="geometry" />
        </mxCell>
        <mxCell id="FXJXPnf7FUrhk9hKkWCc-86" value="" style="verticalLabelPosition=bottom;verticalAlign=top;html=1;shape=mxgraph.flowchart.on-page_reference;" parent="1" vertex="1">
          <mxGeometry x="-50" y="1380" width="60" height="60" as="geometry" />
        </mxCell>
        <mxCell id="FXJXPnf7FUrhk9hKkWCc-88" style="edgeStyle=orthogonalEdgeStyle;rounded=0;orthogonalLoop=1;jettySize=auto;html=1;entryX=1;entryY=0.5;entryDx=0;entryDy=0;entryPerimeter=0;" parent="1" source="FXJXPnf7FUrhk9hKkWCc-22" target="FXJXPnf7FUrhk9hKkWCc-86" edge="1">
          <mxGeometry relative="1" as="geometry" />
        </mxCell>
        <mxCell id="FXJXPnf7FUrhk9hKkWCc-94" style="edgeStyle=orthogonalEdgeStyle;rounded=0;orthogonalLoop=1;jettySize=auto;html=1;entryX=0.5;entryY=0;entryDx=0;entryDy=0;" parent="1" source="FXJXPnf7FUrhk9hKkWCc-95" target="FXJXPnf7FUrhk9hKkWCc-99" edge="1">
          <mxGeometry relative="1" as="geometry" />
        </mxCell>
        <mxCell id="FXJXPnf7FUrhk9hKkWCc-95" value="con == 1" style="strokeWidth=2;html=1;shape=mxgraph.flowchart.decision;whiteSpace=wrap;" parent="1" vertex="1">
          <mxGeometry x="322.5" y="2090" width="70" height="80" as="geometry" />
        </mxCell>
        <mxCell id="FXJXPnf7FUrhk9hKkWCc-96" value="" style="verticalLabelPosition=bottom;verticalAlign=top;html=1;shape=offPageConnector;rounded=0;size=0.6153846153846154;" parent="1" vertex="1">
          <mxGeometry x="325" y="1970" width="65" height="65" as="geometry" />
        </mxCell>
        <mxCell id="FXJXPnf7FUrhk9hKkWCc-97" style="edgeStyle=orthogonalEdgeStyle;rounded=0;orthogonalLoop=1;jettySize=auto;html=1;entryX=0.5;entryY=0;entryDx=0;entryDy=0;entryPerimeter=0;" parent="1" source="FXJXPnf7FUrhk9hKkWCc-96" target="FXJXPnf7FUrhk9hKkWCc-95" edge="1">
          <mxGeometry relative="1" as="geometry" />
        </mxCell>
        <mxCell id="FXJXPnf7FUrhk9hKkWCc-98" style="edgeStyle=orthogonalEdgeStyle;rounded=0;orthogonalLoop=1;jettySize=auto;html=1;" parent="1" source="FXJXPnf7FUrhk9hKkWCc-99" target="FXJXPnf7FUrhk9hKkWCc-100" edge="1">
          <mxGeometry relative="1" as="geometry" />
        </mxCell>
        <mxCell id="FXJXPnf7FUrhk9hKkWCc-99" value="hasil = nilai * 0.3048" style="rounded=1;whiteSpace=wrap;html=1;absoluteArcSize=1;arcSize=14;strokeWidth=2;" parent="1" vertex="1">
          <mxGeometry x="307.5" y="2270" width="100" height="40" as="geometry" />
        </mxCell>
        <mxCell id="FXJXPnf7FUrhk9hKkWCc-100" value="Output&quot;Hasil&amp;nbsp;&lt;div&gt;&lt;span style=&quot;background-color: transparent; color: light-dark(rgb(0, 0, 0), rgb(255, 255, 255));&quot;&gt;meternya&amp;nbsp;&lt;/span&gt;&lt;/div&gt;&lt;div&gt;&lt;span style=&quot;background-color: transparent; color: light-dark(rgb(0, 0, 0), rgb(255, 255, 255));&quot;&gt;adalah:&quot;,hasil&lt;/span&gt;&lt;/div&gt;" style="shape=parallelogram;html=1;strokeWidth=2;perimeter=parallelogramPerimeter;whiteSpace=wrap;rounded=1;arcSize=12;size=0.23;" parent="1" vertex="1">
          <mxGeometry x="290.63" y="2390" width="133.75" height="50" as="geometry" />
        </mxCell>
        <mxCell id="FXJXPnf7FUrhk9hKkWCc-101" style="edgeStyle=orthogonalEdgeStyle;rounded=0;orthogonalLoop=1;jettySize=auto;html=1;" parent="1" source="FXJXPnf7FUrhk9hKkWCc-102" target="FXJXPnf7FUrhk9hKkWCc-109" edge="1">
          <mxGeometry relative="1" as="geometry" />
        </mxCell>
        <mxCell id="FXJXPnf7FUrhk9hKkWCc-102" value="con == 2" style="strokeWidth=2;html=1;shape=mxgraph.flowchart.decision;whiteSpace=wrap;" parent="1" vertex="1">
          <mxGeometry x="185" y="2090" width="70" height="80" as="geometry" />
        </mxCell>
        <mxCell id="FXJXPnf7FUrhk9hKkWCc-103" style="edgeStyle=orthogonalEdgeStyle;rounded=0;orthogonalLoop=1;jettySize=auto;html=1;entryX=1;entryY=0.5;entryDx=0;entryDy=0;entryPerimeter=0;" parent="1" source="FXJXPnf7FUrhk9hKkWCc-95" target="FXJXPnf7FUrhk9hKkWCc-102" edge="1">
          <mxGeometry relative="1" as="geometry" />
        </mxCell>
        <mxCell id="FXJXPnf7FUrhk9hKkWCc-104" style="edgeStyle=orthogonalEdgeStyle;rounded=0;orthogonalLoop=1;jettySize=auto;html=1;" parent="1" source="FXJXPnf7FUrhk9hKkWCc-106" target="FXJXPnf7FUrhk9hKkWCc-111" edge="1">
          <mxGeometry relative="1" as="geometry" />
        </mxCell>
        <mxCell id="FXJXPnf7FUrhk9hKkWCc-105" style="edgeStyle=orthogonalEdgeStyle;rounded=0;orthogonalLoop=1;jettySize=auto;html=1;entryX=1;entryY=0.5;entryDx=0;entryDy=0;" parent="1" source="FXJXPnf7FUrhk9hKkWCc-106" target="FXJXPnf7FUrhk9hKkWCc-119" edge="1">
          <mxGeometry relative="1" as="geometry" />
        </mxCell>
        <mxCell id="FXJXPnf7FUrhk9hKkWCc-106" value="con == 3" style="strokeWidth=2;html=1;shape=mxgraph.flowchart.decision;whiteSpace=wrap;" parent="1" vertex="1">
          <mxGeometry x="35" y="2090" width="70" height="80" as="geometry" />
        </mxCell>
        <mxCell id="FXJXPnf7FUrhk9hKkWCc-107" style="edgeStyle=orthogonalEdgeStyle;rounded=0;orthogonalLoop=1;jettySize=auto;html=1;entryX=1;entryY=0.5;entryDx=0;entryDy=0;entryPerimeter=0;" parent="1" source="FXJXPnf7FUrhk9hKkWCc-102" target="FXJXPnf7FUrhk9hKkWCc-106" edge="1">
          <mxGeometry relative="1" as="geometry" />
        </mxCell>
        <mxCell id="FXJXPnf7FUrhk9hKkWCc-127" style="edgeStyle=orthogonalEdgeStyle;rounded=0;orthogonalLoop=1;jettySize=auto;html=1;" parent="1" source="FXJXPnf7FUrhk9hKkWCc-109" target="FXJXPnf7FUrhk9hKkWCc-112" edge="1">
          <mxGeometry relative="1" as="geometry" />
        </mxCell>
        <mxCell id="FXJXPnf7FUrhk9hKkWCc-109" value="hasil = nilai * 1000" style="rounded=1;whiteSpace=wrap;html=1;absoluteArcSize=1;arcSize=14;strokeWidth=2;" parent="1" vertex="1">
          <mxGeometry x="170" y="2270" width="100" height="40" as="geometry" />
        </mxCell>
        <mxCell id="FXJXPnf7FUrhk9hKkWCc-126" style="edgeStyle=orthogonalEdgeStyle;rounded=0;orthogonalLoop=1;jettySize=auto;html=1;" parent="1" source="FXJXPnf7FUrhk9hKkWCc-111" target="FXJXPnf7FUrhk9hKkWCc-113" edge="1">
          <mxGeometry relative="1" as="geometry" />
        </mxCell>
        <mxCell id="FXJXPnf7FUrhk9hKkWCc-111" value="hasil = nilai / 100" style="rounded=1;whiteSpace=wrap;html=1;absoluteArcSize=1;arcSize=14;strokeWidth=2;" parent="1" vertex="1">
          <mxGeometry x="20" y="2270" width="100" height="40" as="geometry" />
        </mxCell>
        <mxCell id="FXJXPnf7FUrhk9hKkWCc-112" value="Output&quot;Hasil&amp;nbsp;&lt;div&gt;&lt;span style=&quot;background-color: transparent; color: light-dark(rgb(0, 0, 0), rgb(255, 255, 255));&quot;&gt;meternya&amp;nbsp;&lt;/span&gt;&lt;/div&gt;&lt;div&gt;&lt;span style=&quot;background-color: transparent; color: light-dark(rgb(0, 0, 0), rgb(255, 255, 255));&quot;&gt;adalah:&quot;,hasil&lt;/span&gt;&lt;/div&gt;" style="shape=parallelogram;html=1;strokeWidth=2;perimeter=parallelogramPerimeter;whiteSpace=wrap;rounded=1;arcSize=12;size=0.23;" parent="1" vertex="1">
          <mxGeometry x="160.01" y="2390" width="119.99" height="50" as="geometry" />
        </mxCell>
        <mxCell id="FXJXPnf7FUrhk9hKkWCc-113" value="Output&quot;Hasil&amp;nbsp;&lt;div&gt;&lt;span style=&quot;background-color: transparent; color: light-dark(rgb(0, 0, 0), rgb(255, 255, 255));&quot;&gt;meternya&amp;nbsp;&lt;/span&gt;&lt;/div&gt;&lt;div&gt;&lt;span style=&quot;background-color: transparent; color: light-dark(rgb(0, 0, 0), rgb(255, 255, 255));&quot;&gt;adalah:&quot;,hasil&lt;/span&gt;&lt;/div&gt;" style="shape=parallelogram;html=1;strokeWidth=2;perimeter=parallelogramPerimeter;whiteSpace=wrap;rounded=1;arcSize=12;size=0.23;" parent="1" vertex="1">
          <mxGeometry x="9.059999999999995" y="2390" width="121.87" height="50" as="geometry" />
        </mxCell>
        <mxCell id="FXJXPnf7FUrhk9hKkWCc-114" value="yes" style="text;html=1;align=center;verticalAlign=middle;resizable=0;points=[];autosize=1;strokeColor=none;fillColor=none;" parent="1" vertex="1">
          <mxGeometry x="25" y="2170" width="40" height="30" as="geometry" />
        </mxCell>
        <mxCell id="FXJXPnf7FUrhk9hKkWCc-115" value="&lt;span style=&quot;color: rgb(0, 0, 0); font-family: Helvetica; font-size: 12px; font-style: normal; font-variant-ligatures: normal; font-variant-caps: normal; font-weight: 400; letter-spacing: normal; orphans: 2; text-align: center; text-indent: 0px; text-transform: none; widows: 2; word-spacing: 0px; -webkit-text-stroke-width: 0px; white-space: nowrap; background-color: rgb(236, 236, 236); text-decoration-thickness: initial; text-decoration-style: initial; text-decoration-color: initial; display: inline !important; float: none;&quot;&gt;yes&lt;/span&gt;" style="text;whiteSpace=wrap;html=1;" parent="1" vertex="1">
          <mxGeometry x="175" y="2180" width="50" height="40" as="geometry" />
        </mxCell>
        <mxCell id="FXJXPnf7FUrhk9hKkWCc-116" value="&lt;span style=&quot;color: rgb(0, 0, 0); font-family: Helvetica; font-size: 12px; font-style: normal; font-variant-ligatures: normal; font-variant-caps: normal; font-weight: 400; letter-spacing: normal; orphans: 2; text-align: center; text-indent: 0px; text-transform: none; widows: 2; word-spacing: 0px; -webkit-text-stroke-width: 0px; white-space: nowrap; background-color: rgb(236, 236, 236); text-decoration-thickness: initial; text-decoration-style: initial; text-decoration-color: initial; display: inline !important; float: none;&quot;&gt;yes&lt;/span&gt;" style="text;whiteSpace=wrap;html=1;" parent="1" vertex="1">
          <mxGeometry x="320" y="2180" width="50" height="40" as="geometry" />
        </mxCell>
        <mxCell id="FXJXPnf7FUrhk9hKkWCc-117" value="no" style="text;html=1;align=center;verticalAlign=middle;resizable=0;points=[];autosize=1;strokeColor=none;fillColor=none;" parent="1" vertex="1">
          <mxGeometry x="135" y="2100" width="40" height="30" as="geometry" />
        </mxCell>
        <mxCell id="FXJXPnf7FUrhk9hKkWCc-118" value="no" style="text;html=1;align=center;verticalAlign=middle;resizable=0;points=[];autosize=1;strokeColor=none;fillColor=none;" parent="1" vertex="1">
          <mxGeometry x="267.5" y="2100" width="40" height="30" as="geometry" />
        </mxCell>
        <mxCell id="FXJXPnf7FUrhk9hKkWCc-119" value="Output&quot;Pilihan&amp;nbsp;&lt;div&gt;&lt;span style=&quot;background-color: transparent; color: light-dark(rgb(0, 0, 0), rgb(255, 255, 255));&quot;&gt;konversi meter&lt;/span&gt;&lt;/div&gt;&lt;div&gt;&lt;span style=&quot;background-color: transparent; color: light-dark(rgb(0, 0, 0), rgb(255, 255, 255));&quot;&gt;tidak ada!&quot;l&lt;/span&gt;&lt;/div&gt;" style="shape=parallelogram;html=1;strokeWidth=2;perimeter=parallelogramPerimeter;whiteSpace=wrap;rounded=1;arcSize=12;size=0.23;" parent="1" vertex="1">
          <mxGeometry x="-170" y="2105" width="133.75" height="50" as="geometry" />
        </mxCell>
        <mxCell id="FXJXPnf7FUrhk9hKkWCc-120" value="no" style="text;html=1;align=center;verticalAlign=middle;resizable=0;points=[];autosize=1;strokeColor=none;fillColor=none;" parent="1" vertex="1">
          <mxGeometry x="-15" y="2100" width="40" height="30" as="geometry" />
        </mxCell>
        <mxCell id="FXJXPnf7FUrhk9hKkWCc-121" value="End" style="strokeWidth=2;html=1;shape=mxgraph.flowchart.start_1;whiteSpace=wrap;" parent="1" vertex="1">
          <mxGeometry x="-153.12" y="2230" width="100" height="42" as="geometry" />
        </mxCell>
        <mxCell id="FXJXPnf7FUrhk9hKkWCc-122" style="edgeStyle=orthogonalEdgeStyle;rounded=0;orthogonalLoop=1;jettySize=auto;html=1;entryX=0.5;entryY=0;entryDx=0;entryDy=0;entryPerimeter=0;" parent="1" source="FXJXPnf7FUrhk9hKkWCc-119" target="FXJXPnf7FUrhk9hKkWCc-121" edge="1">
          <mxGeometry relative="1" as="geometry" />
        </mxCell>
        <mxCell id="FXJXPnf7FUrhk9hKkWCc-128" value="" style="verticalLabelPosition=bottom;verticalAlign=top;html=1;shape=mxgraph.flowchart.on-page_reference;" parent="1" vertex="1">
          <mxGeometry x="-400" y="1380" width="60" height="60" as="geometry" />
        </mxCell>
        <mxCell id="FXJXPnf7FUrhk9hKkWCc-147" style="edgeStyle=orthogonalEdgeStyle;rounded=0;orthogonalLoop=1;jettySize=auto;html=1;entryX=0.5;entryY=0;entryDx=0;entryDy=0;" parent="1" source="FXJXPnf7FUrhk9hKkWCc-129" target="FXJXPnf7FUrhk9hKkWCc-132" edge="1">
          <mxGeometry relative="1" as="geometry" />
        </mxCell>
        <mxCell id="FXJXPnf7FUrhk9hKkWCc-129" value="pil == 2" style="strokeWidth=2;html=1;shape=mxgraph.flowchart.decision;whiteSpace=wrap;" parent="1" vertex="1">
          <mxGeometry x="-405" y="1480" width="70" height="80" as="geometry" />
        </mxCell>
        <mxCell id="FXJXPnf7FUrhk9hKkWCc-130" style="edgeStyle=orthogonalEdgeStyle;rounded=0;orthogonalLoop=1;jettySize=auto;html=1;entryX=0.5;entryY=0;entryDx=0;entryDy=0;entryPerimeter=0;" parent="1" source="FXJXPnf7FUrhk9hKkWCc-128" target="FXJXPnf7FUrhk9hKkWCc-129" edge="1">
          <mxGeometry relative="1" as="geometry" />
        </mxCell>
        <mxCell id="FXJXPnf7FUrhk9hKkWCc-131" style="edgeStyle=orthogonalEdgeStyle;rounded=0;orthogonalLoop=1;jettySize=auto;html=1;" parent="1" source="FXJXPnf7FUrhk9hKkWCc-132" target="FXJXPnf7FUrhk9hKkWCc-134" edge="1">
          <mxGeometry relative="1" as="geometry" />
        </mxCell>
        <mxCell id="FXJXPnf7FUrhk9hKkWCc-132" value="Output&quot;Konversi&lt;div&gt;&lt;span style=&quot;background-color: transparent; color: light-dark(rgb(0, 0, 0), rgb(255, 255, 255));&quot;&gt;Massa ke kilogram&quot;&lt;/span&gt;&lt;/div&gt;" style="shape=parallelogram;html=1;strokeWidth=2;perimeter=parallelogramPerimeter;whiteSpace=wrap;rounded=1;arcSize=12;size=0.23;" parent="1" vertex="1">
          <mxGeometry x="-330" y="1550" width="160" height="30" as="geometry" />
        </mxCell>
        <mxCell id="FXJXPnf7FUrhk9hKkWCc-133" style="edgeStyle=orthogonalEdgeStyle;rounded=0;orthogonalLoop=1;jettySize=auto;html=1;" parent="1" source="FXJXPnf7FUrhk9hKkWCc-134" target="FXJXPnf7FUrhk9hKkWCc-136" edge="1">
          <mxGeometry relative="1" as="geometry" />
        </mxCell>
        <mxCell id="FXJXPnf7FUrhk9hKkWCc-134" value="Output&quot;1.Pon(pound)&lt;div&gt;&lt;span style=&quot;background-color: transparent; color: light-dark(rgb(0, 0, 0), rgb(255, 255, 255));&quot;&gt;-&amp;gt; Kilogram&quot;&lt;/span&gt;&lt;/div&gt;" style="shape=parallelogram;html=1;strokeWidth=2;perimeter=parallelogramPerimeter;whiteSpace=wrap;rounded=1;arcSize=12;size=0.23;" parent="1" vertex="1">
          <mxGeometry x="-335" y="1610" width="170" height="30" as="geometry" />
        </mxCell>
        <mxCell id="FXJXPnf7FUrhk9hKkWCc-135" style="edgeStyle=orthogonalEdgeStyle;rounded=0;orthogonalLoop=1;jettySize=auto;html=1;entryX=0.5;entryY=0;entryDx=0;entryDy=0;" parent="1" source="FXJXPnf7FUrhk9hKkWCc-136" target="FXJXPnf7FUrhk9hKkWCc-139" edge="1">
          <mxGeometry relative="1" as="geometry" />
        </mxCell>
        <mxCell id="FXJXPnf7FUrhk9hKkWCc-136" value="Output&quot;2.Ton&lt;div&gt;&lt;span style=&quot;background-color: transparent; color: light-dark(rgb(0, 0, 0), rgb(255, 255, 255));&quot;&gt;-&amp;gt; Kilogram&quot;&lt;/span&gt;&lt;/div&gt;" style="shape=parallelogram;html=1;strokeWidth=2;perimeter=parallelogramPerimeter;whiteSpace=wrap;rounded=1;arcSize=12;size=0.23;" parent="1" vertex="1">
          <mxGeometry x="-330" y="1660" width="160" height="30" as="geometry" />
        </mxCell>
        <mxCell id="FXJXPnf7FUrhk9hKkWCc-137" style="edgeStyle=orthogonalEdgeStyle;rounded=0;orthogonalLoop=1;jettySize=auto;html=1;exitX=0.5;exitY=1;exitDx=0;exitDy=0;" parent="1" source="FXJXPnf7FUrhk9hKkWCc-136" target="FXJXPnf7FUrhk9hKkWCc-136" edge="1">
          <mxGeometry relative="1" as="geometry" />
        </mxCell>
        <mxCell id="FXJXPnf7FUrhk9hKkWCc-172" style="edgeStyle=orthogonalEdgeStyle;rounded=0;orthogonalLoop=1;jettySize=auto;html=1;entryX=0.5;entryY=0;entryDx=0;entryDy=0;" parent="1" source="FXJXPnf7FUrhk9hKkWCc-139" target="FXJXPnf7FUrhk9hKkWCc-168" edge="1">
          <mxGeometry relative="1" as="geometry" />
        </mxCell>
        <mxCell id="FXJXPnf7FUrhk9hKkWCc-139" value="Output&quot;3.Gram&lt;div&gt;&lt;span style=&quot;background-color: transparent; color: light-dark(rgb(0, 0, 0), rgb(255, 255, 255));&quot;&gt;-&amp;gt; Kilogram&quot;&lt;/span&gt;&lt;/div&gt;" style="shape=parallelogram;html=1;strokeWidth=2;perimeter=parallelogramPerimeter;whiteSpace=wrap;rounded=1;arcSize=12;size=0.23;" parent="1" vertex="1">
          <mxGeometry x="-330" y="1710" width="160" height="30" as="geometry" />
        </mxCell>
        <mxCell id="FXJXPnf7FUrhk9hKkWCc-140" style="edgeStyle=orthogonalEdgeStyle;rounded=0;orthogonalLoop=1;jettySize=auto;html=1;" parent="1" source="FXJXPnf7FUrhk9hKkWCc-141" target="FXJXPnf7FUrhk9hKkWCc-143" edge="1">
          <mxGeometry relative="1" as="geometry" />
        </mxCell>
        <mxCell id="FXJXPnf7FUrhk9hKkWCc-141" value="Output&quot;Pilih jenis&lt;div&gt;konversi&quot;&lt;/div&gt;" style="shape=parallelogram;html=1;strokeWidth=2;perimeter=parallelogramPerimeter;whiteSpace=wrap;rounded=1;arcSize=12;size=0.23;" parent="1" vertex="1">
          <mxGeometry x="-330" y="1857.5" width="160" height="30" as="geometry" />
        </mxCell>
        <mxCell id="FXJXPnf7FUrhk9hKkWCc-177" style="edgeStyle=orthogonalEdgeStyle;rounded=0;orthogonalLoop=1;jettySize=auto;html=1;" parent="1" source="FXJXPnf7FUrhk9hKkWCc-143" target="FXJXPnf7FUrhk9hKkWCc-145" edge="1">
          <mxGeometry relative="1" as="geometry" />
        </mxCell>
        <mxCell id="FXJXPnf7FUrhk9hKkWCc-143" value="Input con" style="shape=parallelogram;html=1;strokeWidth=2;perimeter=parallelogramPerimeter;whiteSpace=wrap;rounded=1;arcSize=12;size=0.23;" parent="1" vertex="1">
          <mxGeometry x="-330" y="1905" width="160" height="20" as="geometry" />
        </mxCell>
        <mxCell id="FXJXPnf7FUrhk9hKkWCc-178" style="edgeStyle=orthogonalEdgeStyle;rounded=0;orthogonalLoop=1;jettySize=auto;html=1;" parent="1" source="FXJXPnf7FUrhk9hKkWCc-145" target="FXJXPnf7FUrhk9hKkWCc-146" edge="1">
          <mxGeometry relative="1" as="geometry" />
        </mxCell>
        <mxCell id="FXJXPnf7FUrhk9hKkWCc-145" value="Output&quot;Masukkan&lt;div&gt;&amp;nbsp;nila&lt;span style=&quot;background-color: transparent; color: light-dark(rgb(0, 0, 0), rgb(255, 255, 255));&quot;&gt;i&quot;&lt;/span&gt;&lt;/div&gt;" style="shape=parallelogram;html=1;strokeWidth=2;perimeter=parallelogramPerimeter;whiteSpace=wrap;rounded=1;arcSize=12;size=0.23;" parent="1" vertex="1">
          <mxGeometry x="-330" y="1950" width="160" height="30" as="geometry" />
        </mxCell>
        <mxCell id="FXJXPnf7FUrhk9hKkWCc-184" style="edgeStyle=orthogonalEdgeStyle;rounded=0;orthogonalLoop=1;jettySize=auto;html=1;entryX=0.5;entryY=0;entryDx=0;entryDy=0;" parent="1" source="FXJXPnf7FUrhk9hKkWCc-146" target="FXJXPnf7FUrhk9hKkWCc-183" edge="1">
          <mxGeometry relative="1" as="geometry" />
        </mxCell>
        <mxCell id="FXJXPnf7FUrhk9hKkWCc-146" value="Input nilai" style="shape=parallelogram;html=1;strokeWidth=2;perimeter=parallelogramPerimeter;whiteSpace=wrap;rounded=1;arcSize=12;size=0.23;" parent="1" vertex="1">
          <mxGeometry x="-320" y="2000" width="140" height="30" as="geometry" />
        </mxCell>
        <mxCell id="FXJXPnf7FUrhk9hKkWCc-182" style="edgeStyle=orthogonalEdgeStyle;rounded=0;orthogonalLoop=1;jettySize=auto;html=1;" parent="1" source="FXJXPnf7FUrhk9hKkWCc-167" target="FXJXPnf7FUrhk9hKkWCc-141" edge="1">
          <mxGeometry relative="1" as="geometry" />
        </mxCell>
        <mxCell id="FXJXPnf7FUrhk9hKkWCc-167" value="Output&quot;5.Dekagram&lt;div&gt;-&amp;gt; Kilogram&quot;&lt;/div&gt;" style="shape=parallelogram;html=1;strokeWidth=2;perimeter=parallelogramPerimeter;whiteSpace=wrap;rounded=1;arcSize=12;size=0.23;" parent="1" vertex="1">
          <mxGeometry x="-335" y="1810" width="170" height="30" as="geometry" />
        </mxCell>
        <mxCell id="FXJXPnf7FUrhk9hKkWCc-181" style="edgeStyle=orthogonalEdgeStyle;rounded=0;orthogonalLoop=1;jettySize=auto;html=1;" parent="1" source="FXJXPnf7FUrhk9hKkWCc-168" target="FXJXPnf7FUrhk9hKkWCc-167" edge="1">
          <mxGeometry relative="1" as="geometry" />
        </mxCell>
        <mxCell id="FXJXPnf7FUrhk9hKkWCc-168" value="Output&quot;4.Ons&lt;div&gt;-&amp;gt; Kilogram&quot;&lt;/div&gt;" style="shape=parallelogram;html=1;strokeWidth=2;perimeter=parallelogramPerimeter;whiteSpace=wrap;rounded=1;arcSize=12;size=0.23;" parent="1" vertex="1">
          <mxGeometry x="-330" y="1760" width="160" height="30" as="geometry" />
        </mxCell>
        <mxCell id="FXJXPnf7FUrhk9hKkWCc-176" style="edgeStyle=orthogonalEdgeStyle;rounded=0;orthogonalLoop=1;jettySize=auto;html=1;exitX=0.5;exitY=1;exitDx=0;exitDy=0;" parent="1" source="FXJXPnf7FUrhk9hKkWCc-145" target="FXJXPnf7FUrhk9hKkWCc-145" edge="1">
          <mxGeometry relative="1" as="geometry" />
        </mxCell>
        <mxCell id="FXJXPnf7FUrhk9hKkWCc-183" value="" style="verticalLabelPosition=bottom;verticalAlign=top;html=1;shape=offPageConnector;rounded=0;size=0.6153846153846154;" parent="1" vertex="1">
          <mxGeometry x="-282.5" y="2060" width="65" height="65" as="geometry" />
        </mxCell>
        <mxCell id="FXJXPnf7FUrhk9hKkWCc-185" value="" style="verticalLabelPosition=bottom;verticalAlign=top;html=1;shape=mxgraph.flowchart.on-page_reference;" parent="1" vertex="1">
          <mxGeometry x="-520" y="1490" width="60" height="60" as="geometry" />
        </mxCell>
        <mxCell id="FXJXPnf7FUrhk9hKkWCc-186" style="edgeStyle=orthogonalEdgeStyle;rounded=0;orthogonalLoop=1;jettySize=auto;html=1;entryX=1;entryY=0.5;entryDx=0;entryDy=0;entryPerimeter=0;" parent="1" source="FXJXPnf7FUrhk9hKkWCc-129" target="FXJXPnf7FUrhk9hKkWCc-185" edge="1">
          <mxGeometry relative="1" as="geometry" />
        </mxCell>
        <mxCell id="FXJXPnf7FUrhk9hKkWCc-216" style="edgeStyle=orthogonalEdgeStyle;rounded=0;orthogonalLoop=1;jettySize=auto;html=1;entryX=0.5;entryY=0;entryDx=0;entryDy=0;" parent="1" source="FXJXPnf7FUrhk9hKkWCc-217" target="FXJXPnf7FUrhk9hKkWCc-221" edge="1">
          <mxGeometry relative="1" as="geometry" />
        </mxCell>
        <mxCell id="FXJXPnf7FUrhk9hKkWCc-217" value="con == 1" style="strokeWidth=2;html=1;shape=mxgraph.flowchart.decision;whiteSpace=wrap;" parent="1" vertex="1">
          <mxGeometry x="-287.5" y="2310" width="70" height="80" as="geometry" />
        </mxCell>
        <mxCell id="FXJXPnf7FUrhk9hKkWCc-218" value="" style="verticalLabelPosition=bottom;verticalAlign=top;html=1;shape=offPageConnector;rounded=0;size=0.6153846153846154;" parent="1" vertex="1">
          <mxGeometry x="-285" y="2190" width="65" height="65" as="geometry" />
        </mxCell>
        <mxCell id="FXJXPnf7FUrhk9hKkWCc-219" style="edgeStyle=orthogonalEdgeStyle;rounded=0;orthogonalLoop=1;jettySize=auto;html=1;entryX=0.5;entryY=0;entryDx=0;entryDy=0;entryPerimeter=0;" parent="1" source="FXJXPnf7FUrhk9hKkWCc-218" target="FXJXPnf7FUrhk9hKkWCc-217" edge="1">
          <mxGeometry relative="1" as="geometry" />
        </mxCell>
        <mxCell id="FXJXPnf7FUrhk9hKkWCc-220" style="edgeStyle=orthogonalEdgeStyle;rounded=0;orthogonalLoop=1;jettySize=auto;html=1;" parent="1" source="FXJXPnf7FUrhk9hKkWCc-221" target="FXJXPnf7FUrhk9hKkWCc-222" edge="1">
          <mxGeometry relative="1" as="geometry" />
        </mxCell>
        <mxCell id="FXJXPnf7FUrhk9hKkWCc-221" value="hasil = nilai * 0.454" style="rounded=1;whiteSpace=wrap;html=1;absoluteArcSize=1;arcSize=14;strokeWidth=2;" parent="1" vertex="1">
          <mxGeometry x="-302.5" y="2440" width="100" height="40" as="geometry" />
        </mxCell>
        <mxCell id="FXJXPnf7FUrhk9hKkWCc-222" value="Output&lt;div&gt;&quot;Kilogram&lt;span style=&quot;background-color: transparent; color: light-dark(rgb(0, 0, 0), rgb(255, 255, 255));&quot;&gt;&quot;,hasil&lt;/span&gt;&lt;/div&gt;" style="shape=parallelogram;html=1;strokeWidth=2;perimeter=parallelogramPerimeter;whiteSpace=wrap;rounded=1;arcSize=12;size=0.23;" parent="1" vertex="1">
          <mxGeometry x="-319.37" y="2540" width="133.75" height="50" as="geometry" />
        </mxCell>
        <mxCell id="FXJXPnf7FUrhk9hKkWCc-223" style="edgeStyle=orthogonalEdgeStyle;rounded=0;orthogonalLoop=1;jettySize=auto;html=1;" parent="1" source="FXJXPnf7FUrhk9hKkWCc-224" target="FXJXPnf7FUrhk9hKkWCc-231" edge="1">
          <mxGeometry relative="1" as="geometry" />
        </mxCell>
        <mxCell id="FXJXPnf7FUrhk9hKkWCc-224" value="con == 2" style="strokeWidth=2;html=1;shape=mxgraph.flowchart.decision;whiteSpace=wrap;" parent="1" vertex="1">
          <mxGeometry x="-425" y="2310" width="70" height="80" as="geometry" />
        </mxCell>
        <mxCell id="FXJXPnf7FUrhk9hKkWCc-225" style="edgeStyle=orthogonalEdgeStyle;rounded=0;orthogonalLoop=1;jettySize=auto;html=1;entryX=1;entryY=0.5;entryDx=0;entryDy=0;entryPerimeter=0;" parent="1" source="FXJXPnf7FUrhk9hKkWCc-217" target="FXJXPnf7FUrhk9hKkWCc-224" edge="1">
          <mxGeometry relative="1" as="geometry" />
        </mxCell>
        <mxCell id="FXJXPnf7FUrhk9hKkWCc-226" style="edgeStyle=orthogonalEdgeStyle;rounded=0;orthogonalLoop=1;jettySize=auto;html=1;" parent="1" source="FXJXPnf7FUrhk9hKkWCc-228" target="FXJXPnf7FUrhk9hKkWCc-233" edge="1">
          <mxGeometry relative="1" as="geometry" />
        </mxCell>
        <mxCell id="FXJXPnf7FUrhk9hKkWCc-228" value="con == 3" style="strokeWidth=2;html=1;shape=mxgraph.flowchart.decision;whiteSpace=wrap;" parent="1" vertex="1">
          <mxGeometry x="-575" y="2310" width="70" height="80" as="geometry" />
        </mxCell>
        <mxCell id="FXJXPnf7FUrhk9hKkWCc-229" style="edgeStyle=orthogonalEdgeStyle;rounded=0;orthogonalLoop=1;jettySize=auto;html=1;entryX=1;entryY=0.5;entryDx=0;entryDy=0;entryPerimeter=0;" parent="1" source="FXJXPnf7FUrhk9hKkWCc-224" target="FXJXPnf7FUrhk9hKkWCc-228" edge="1">
          <mxGeometry relative="1" as="geometry" />
        </mxCell>
        <mxCell id="FXJXPnf7FUrhk9hKkWCc-230" style="edgeStyle=orthogonalEdgeStyle;rounded=0;orthogonalLoop=1;jettySize=auto;html=1;" parent="1" source="FXJXPnf7FUrhk9hKkWCc-231" target="FXJXPnf7FUrhk9hKkWCc-234" edge="1">
          <mxGeometry relative="1" as="geometry" />
        </mxCell>
        <mxCell id="FXJXPnf7FUrhk9hKkWCc-231" value="hasil = nilai * 1000" style="rounded=1;whiteSpace=wrap;html=1;absoluteArcSize=1;arcSize=14;strokeWidth=2;" parent="1" vertex="1">
          <mxGeometry x="-440" y="2440" width="100" height="40" as="geometry" />
        </mxCell>
        <mxCell id="FXJXPnf7FUrhk9hKkWCc-232" style="edgeStyle=orthogonalEdgeStyle;rounded=0;orthogonalLoop=1;jettySize=auto;html=1;" parent="1" source="FXJXPnf7FUrhk9hKkWCc-233" target="FXJXPnf7FUrhk9hKkWCc-235" edge="1">
          <mxGeometry relative="1" as="geometry" />
        </mxCell>
        <mxCell id="FXJXPnf7FUrhk9hKkWCc-233" value="hasil = nilai / 1000" style="rounded=1;whiteSpace=wrap;html=1;absoluteArcSize=1;arcSize=14;strokeWidth=2;" parent="1" vertex="1">
          <mxGeometry x="-590" y="2440" width="100" height="40" as="geometry" />
        </mxCell>
        <mxCell id="FXJXPnf7FUrhk9hKkWCc-234" value="Output&lt;div&gt;&quot;Kilogram&lt;span style=&quot;background-color: transparent; color: light-dark(rgb(0, 0, 0), rgb(255, 255, 255));&quot;&gt;&quot;&lt;/span&gt;&lt;/div&gt;&lt;div&gt;&lt;span style=&quot;background-color: transparent; color: light-dark(rgb(0, 0, 0), rgb(255, 255, 255));&quot;&gt;,hasil&lt;/span&gt;&lt;/div&gt;" style="shape=parallelogram;html=1;strokeWidth=2;perimeter=parallelogramPerimeter;whiteSpace=wrap;rounded=1;arcSize=12;size=0.23;" parent="1" vertex="1">
          <mxGeometry x="-449.99" y="2540" width="119.99" height="50" as="geometry" />
        </mxCell>
        <mxCell id="FXJXPnf7FUrhk9hKkWCc-235" value="Output&lt;div&gt;&quot;Kilogram&lt;span style=&quot;background-color: transparent; color: light-dark(rgb(0, 0, 0), rgb(255, 255, 255));&quot;&gt;&quot;&lt;/span&gt;&lt;/div&gt;&lt;div&gt;&lt;span style=&quot;background-color: transparent; color: light-dark(rgb(0, 0, 0), rgb(255, 255, 255));&quot;&gt;,hasil&lt;/span&gt;&lt;/div&gt;" style="shape=parallelogram;html=1;strokeWidth=2;perimeter=parallelogramPerimeter;whiteSpace=wrap;rounded=1;arcSize=12;size=0.23;" parent="1" vertex="1">
          <mxGeometry x="-600.9300000000001" y="2540" width="121.87" height="50" as="geometry" />
        </mxCell>
        <mxCell id="FXJXPnf7FUrhk9hKkWCc-236" value="yes" style="text;html=1;align=center;verticalAlign=middle;resizable=0;points=[];autosize=1;strokeColor=none;fillColor=none;" parent="1" vertex="1">
          <mxGeometry x="-585" y="2390" width="40" height="30" as="geometry" />
        </mxCell>
        <mxCell id="FXJXPnf7FUrhk9hKkWCc-237" value="&lt;span style=&quot;color: rgb(0, 0, 0); font-family: Helvetica; font-size: 12px; font-style: normal; font-variant-ligatures: normal; font-variant-caps: normal; font-weight: 400; letter-spacing: normal; orphans: 2; text-align: center; text-indent: 0px; text-transform: none; widows: 2; word-spacing: 0px; -webkit-text-stroke-width: 0px; white-space: nowrap; background-color: rgb(236, 236, 236); text-decoration-thickness: initial; text-decoration-style: initial; text-decoration-color: initial; display: inline !important; float: none;&quot;&gt;yes&lt;/span&gt;" style="text;whiteSpace=wrap;html=1;" parent="1" vertex="1">
          <mxGeometry x="-435" y="2400" width="50" height="40" as="geometry" />
        </mxCell>
        <mxCell id="FXJXPnf7FUrhk9hKkWCc-238" value="&lt;span style=&quot;color: rgb(0, 0, 0); font-family: Helvetica; font-size: 12px; font-style: normal; font-variant-ligatures: normal; font-variant-caps: normal; font-weight: 400; letter-spacing: normal; orphans: 2; text-align: center; text-indent: 0px; text-transform: none; widows: 2; word-spacing: 0px; -webkit-text-stroke-width: 0px; white-space: nowrap; background-color: rgb(236, 236, 236); text-decoration-thickness: initial; text-decoration-style: initial; text-decoration-color: initial; display: inline !important; float: none;&quot;&gt;yes&lt;/span&gt;" style="text;whiteSpace=wrap;html=1;" parent="1" vertex="1">
          <mxGeometry x="-290" y="2400" width="50" height="40" as="geometry" />
        </mxCell>
        <mxCell id="FXJXPnf7FUrhk9hKkWCc-239" value="no" style="text;html=1;align=center;verticalAlign=middle;resizable=0;points=[];autosize=1;strokeColor=none;fillColor=none;" parent="1" vertex="1">
          <mxGeometry x="-475" y="2320" width="40" height="30" as="geometry" />
        </mxCell>
        <mxCell id="FXJXPnf7FUrhk9hKkWCc-240" value="no" style="text;html=1;align=center;verticalAlign=middle;resizable=0;points=[];autosize=1;strokeColor=none;fillColor=none;" parent="1" vertex="1">
          <mxGeometry x="-342.5" y="2320" width="40" height="30" as="geometry" />
        </mxCell>
        <mxCell id="FXJXPnf7FUrhk9hKkWCc-241" value="Output&quot;Pilihan&amp;nbsp;&lt;div&gt;&lt;span style=&quot;background-color: transparent; color: light-dark(rgb(0, 0, 0), rgb(255, 255, 255));&quot;&gt;konversi massa&lt;/span&gt;&lt;/div&gt;&lt;div&gt;&lt;span style=&quot;background-color: transparent; color: light-dark(rgb(0, 0, 0), rgb(255, 255, 255));&quot;&gt;tidak ada!&quot;l&lt;/span&gt;&lt;/div&gt;" style="shape=parallelogram;html=1;strokeWidth=2;perimeter=parallelogramPerimeter;whiteSpace=wrap;rounded=1;arcSize=12;size=0.23;" parent="1" vertex="1">
          <mxGeometry x="-984" y="2325" width="133.75" height="50" as="geometry" />
        </mxCell>
        <mxCell id="FXJXPnf7FUrhk9hKkWCc-242" value="no" style="text;html=1;align=center;verticalAlign=middle;resizable=0;points=[];autosize=1;strokeColor=none;fillColor=none;" parent="1" vertex="1">
          <mxGeometry x="-615" y="2320" width="40" height="30" as="geometry" />
        </mxCell>
        <mxCell id="FXJXPnf7FUrhk9hKkWCc-243" value="End" style="strokeWidth=2;html=1;shape=mxgraph.flowchart.start_1;whiteSpace=wrap;" parent="1" vertex="1">
          <mxGeometry x="-967.13" y="2460" width="100" height="42" as="geometry" />
        </mxCell>
        <mxCell id="FXJXPnf7FUrhk9hKkWCc-244" style="edgeStyle=orthogonalEdgeStyle;rounded=0;orthogonalLoop=1;jettySize=auto;html=1;entryX=0.5;entryY=0;entryDx=0;entryDy=0;entryPerimeter=0;" parent="1" source="FXJXPnf7FUrhk9hKkWCc-241" target="FXJXPnf7FUrhk9hKkWCc-243" edge="1">
          <mxGeometry relative="1" as="geometry" />
        </mxCell>
        <mxCell id="FXJXPnf7FUrhk9hKkWCc-250" style="edgeStyle=orthogonalEdgeStyle;rounded=0;orthogonalLoop=1;jettySize=auto;html=1;" parent="1" source="FXJXPnf7FUrhk9hKkWCc-245" target="FXJXPnf7FUrhk9hKkWCc-249" edge="1">
          <mxGeometry relative="1" as="geometry" />
        </mxCell>
        <mxCell id="FXJXPnf7FUrhk9hKkWCc-256" style="edgeStyle=orthogonalEdgeStyle;rounded=0;orthogonalLoop=1;jettySize=auto;html=1;" parent="1" source="FXJXPnf7FUrhk9hKkWCc-245" target="FXJXPnf7FUrhk9hKkWCc-247" edge="1">
          <mxGeometry relative="1" as="geometry" />
        </mxCell>
        <mxCell id="FXJXPnf7FUrhk9hKkWCc-245" value="con == 4" style="strokeWidth=2;html=1;shape=mxgraph.flowchart.decision;whiteSpace=wrap;" parent="1" vertex="1">
          <mxGeometry x="-690" y="2310" width="70" height="80" as="geometry" />
        </mxCell>
        <mxCell id="FXJXPnf7FUrhk9hKkWCc-246" style="edgeStyle=orthogonalEdgeStyle;rounded=0;orthogonalLoop=1;jettySize=auto;html=1;entryX=1;entryY=0.5;entryDx=0;entryDy=0;entryPerimeter=0;" parent="1" source="FXJXPnf7FUrhk9hKkWCc-228" target="FXJXPnf7FUrhk9hKkWCc-245" edge="1">
          <mxGeometry relative="1" as="geometry" />
        </mxCell>
        <mxCell id="FXJXPnf7FUrhk9hKkWCc-258" style="edgeStyle=orthogonalEdgeStyle;rounded=0;orthogonalLoop=1;jettySize=auto;html=1;" parent="1" source="FXJXPnf7FUrhk9hKkWCc-247" target="FXJXPnf7FUrhk9hKkWCc-257" edge="1">
          <mxGeometry relative="1" as="geometry" />
        </mxCell>
        <mxCell id="FXJXPnf7FUrhk9hKkWCc-247" value="hasil = nilai * 0.1" style="rounded=1;whiteSpace=wrap;html=1;absoluteArcSize=1;arcSize=14;strokeWidth=2;" parent="1" vertex="1">
          <mxGeometry x="-705" y="2440" width="100" height="40" as="geometry" />
        </mxCell>
        <mxCell id="FXJXPnf7FUrhk9hKkWCc-252" style="edgeStyle=orthogonalEdgeStyle;rounded=0;orthogonalLoop=1;jettySize=auto;html=1;entryX=1;entryY=0.5;entryDx=0;entryDy=0;" parent="1" source="FXJXPnf7FUrhk9hKkWCc-249" target="FXJXPnf7FUrhk9hKkWCc-241" edge="1">
          <mxGeometry relative="1" as="geometry" />
        </mxCell>
        <mxCell id="FXJXPnf7FUrhk9hKkWCc-255" style="edgeStyle=orthogonalEdgeStyle;rounded=0;orthogonalLoop=1;jettySize=auto;html=1;" parent="1" source="FXJXPnf7FUrhk9hKkWCc-249" target="FXJXPnf7FUrhk9hKkWCc-254" edge="1">
          <mxGeometry relative="1" as="geometry" />
        </mxCell>
        <mxCell id="FXJXPnf7FUrhk9hKkWCc-249" value="con == 5" style="strokeWidth=2;html=1;shape=mxgraph.flowchart.decision;whiteSpace=wrap;" parent="1" vertex="1">
          <mxGeometry x="-815" y="2310" width="70" height="80" as="geometry" />
        </mxCell>
        <mxCell id="FXJXPnf7FUrhk9hKkWCc-251" value="no" style="text;html=1;align=center;verticalAlign=middle;resizable=0;points=[];autosize=1;strokeColor=none;fillColor=none;" parent="1" vertex="1">
          <mxGeometry x="-730" y="2320" width="40" height="30" as="geometry" />
        </mxCell>
        <mxCell id="FXJXPnf7FUrhk9hKkWCc-253" value="no" style="text;html=1;align=center;verticalAlign=middle;resizable=0;points=[];autosize=1;strokeColor=none;fillColor=none;" parent="1" vertex="1">
          <mxGeometry x="-845" y="2320" width="40" height="30" as="geometry" />
        </mxCell>
        <mxCell id="FXJXPnf7FUrhk9hKkWCc-261" style="edgeStyle=orthogonalEdgeStyle;rounded=0;orthogonalLoop=1;jettySize=auto;html=1;entryX=0.5;entryY=0;entryDx=0;entryDy=0;" parent="1" source="FXJXPnf7FUrhk9hKkWCc-254" target="FXJXPnf7FUrhk9hKkWCc-259" edge="1">
          <mxGeometry relative="1" as="geometry" />
        </mxCell>
        <mxCell id="FXJXPnf7FUrhk9hKkWCc-254" value="hasil = nilai / 100" style="rounded=1;whiteSpace=wrap;html=1;absoluteArcSize=1;arcSize=14;strokeWidth=2;" parent="1" vertex="1">
          <mxGeometry x="-830" y="2450" width="100" height="40" as="geometry" />
        </mxCell>
        <mxCell id="FXJXPnf7FUrhk9hKkWCc-257" value="Output&lt;div&gt;&quot;Kilogram&quot;&lt;/div&gt;&lt;div&gt;&lt;span style=&quot;background-color: transparent; color: light-dark(rgb(0, 0, 0), rgb(255, 255, 255));&quot;&gt;,hasil&lt;/span&gt;&lt;/div&gt;" style="shape=parallelogram;html=1;strokeWidth=2;perimeter=parallelogramPerimeter;whiteSpace=wrap;rounded=1;arcSize=12;size=0.23;" parent="1" vertex="1">
          <mxGeometry x="-715.94" y="2540" width="121.87" height="50" as="geometry" />
        </mxCell>
        <mxCell id="FXJXPnf7FUrhk9hKkWCc-259" value="Output&lt;div&gt;&quot;Kilogram&lt;div&gt;&lt;span style=&quot;background-color: transparent; color: light-dark(rgb(0, 0, 0), rgb(255, 255, 255));&quot;&gt;&quot;,hasil&lt;/span&gt;&lt;/div&gt;&lt;/div&gt;" style="shape=parallelogram;html=1;strokeWidth=2;perimeter=parallelogramPerimeter;whiteSpace=wrap;rounded=1;arcSize=12;size=0.23;" parent="1" vertex="1">
          <mxGeometry x="-840.93" y="2540" width="121.87" height="50" as="geometry" />
        </mxCell>
        <mxCell id="FXJXPnf7FUrhk9hKkWCc-381" value="" style="verticalLabelPosition=bottom;verticalAlign=top;html=1;shape=mxgraph.flowchart.on-page_reference;" parent="1" vertex="1">
          <mxGeometry x="-1360" y="1350" width="60" height="60" as="geometry" />
        </mxCell>
        <mxCell id="FXJXPnf7FUrhk9hKkWCc-382" style="edgeStyle=orthogonalEdgeStyle;rounded=0;orthogonalLoop=1;jettySize=auto;html=1;entryX=0.5;entryY=0;entryDx=0;entryDy=0;" parent="1" source="FXJXPnf7FUrhk9hKkWCc-383" target="FXJXPnf7FUrhk9hKkWCc-386" edge="1">
          <mxGeometry relative="1" as="geometry" />
        </mxCell>
        <mxCell id="FXJXPnf7FUrhk9hKkWCc-383" value="pil == 3" style="strokeWidth=2;html=1;shape=mxgraph.flowchart.decision;whiteSpace=wrap;" parent="1" vertex="1">
          <mxGeometry x="-1365" y="1450" width="70" height="80" as="geometry" />
        </mxCell>
        <mxCell id="FXJXPnf7FUrhk9hKkWCc-384" style="edgeStyle=orthogonalEdgeStyle;rounded=0;orthogonalLoop=1;jettySize=auto;html=1;entryX=0.5;entryY=0;entryDx=0;entryDy=0;entryPerimeter=0;" parent="1" source="FXJXPnf7FUrhk9hKkWCc-381" target="FXJXPnf7FUrhk9hKkWCc-383" edge="1">
          <mxGeometry relative="1" as="geometry" />
        </mxCell>
        <mxCell id="FXJXPnf7FUrhk9hKkWCc-464" style="edgeStyle=orthogonalEdgeStyle;rounded=0;orthogonalLoop=1;jettySize=auto;html=1;" parent="1" source="FXJXPnf7FUrhk9hKkWCc-386" target="FXJXPnf7FUrhk9hKkWCc-462" edge="1">
          <mxGeometry relative="1" as="geometry" />
        </mxCell>
        <mxCell id="FXJXPnf7FUrhk9hKkWCc-386" value="Output&quot;Konversi&lt;div&gt;&lt;span style=&quot;background-color: transparent; color: light-dark(rgb(0, 0, 0), rgb(255, 255, 255));&quot;&gt;Suhu ke Kelvin&quot;&lt;/span&gt;&lt;/div&gt;" style="shape=parallelogram;html=1;strokeWidth=2;perimeter=parallelogramPerimeter;whiteSpace=wrap;rounded=1;arcSize=12;size=0.23;" parent="1" vertex="1">
          <mxGeometry x="-1290" y="1520" width="160" height="30" as="geometry" />
        </mxCell>
        <mxCell id="FXJXPnf7FUrhk9hKkWCc-466" style="edgeStyle=orthogonalEdgeStyle;rounded=0;orthogonalLoop=1;jettySize=auto;html=1;" parent="1" source="FXJXPnf7FUrhk9hKkWCc-389" target="FXJXPnf7FUrhk9hKkWCc-392" edge="1">
          <mxGeometry relative="1" as="geometry" />
        </mxCell>
        <mxCell id="FXJXPnf7FUrhk9hKkWCc-389" value="Output&quot;2.Fahrenheit&lt;div&gt;&lt;span style=&quot;background-color: transparent; color: light-dark(rgb(0, 0, 0), rgb(255, 255, 255));&quot;&gt;-&amp;gt; Kelvin&quot;&lt;/span&gt;&lt;/div&gt;" style="shape=parallelogram;html=1;strokeWidth=2;perimeter=parallelogramPerimeter;whiteSpace=wrap;rounded=1;arcSize=12;size=0.23;" parent="1" vertex="1">
          <mxGeometry x="-1295" y="1630" width="170" height="30" as="geometry" />
        </mxCell>
        <mxCell id="FXJXPnf7FUrhk9hKkWCc-390" style="edgeStyle=orthogonalEdgeStyle;rounded=0;orthogonalLoop=1;jettySize=auto;html=1;exitX=0.5;exitY=1;exitDx=0;exitDy=0;" parent="1" source="FXJXPnf7FUrhk9hKkWCc-389" target="FXJXPnf7FUrhk9hKkWCc-389" edge="1">
          <mxGeometry relative="1" as="geometry" />
        </mxCell>
        <mxCell id="FXJXPnf7FUrhk9hKkWCc-467" style="edgeStyle=orthogonalEdgeStyle;rounded=0;orthogonalLoop=1;jettySize=auto;html=1;entryX=0.5;entryY=0;entryDx=0;entryDy=0;" parent="1" source="FXJXPnf7FUrhk9hKkWCc-392" target="FXJXPnf7FUrhk9hKkWCc-394" edge="1">
          <mxGeometry relative="1" as="geometry" />
        </mxCell>
        <mxCell id="FXJXPnf7FUrhk9hKkWCc-392" value="Output&quot;3.Reamur&lt;div&gt;&lt;span style=&quot;background-color: transparent; color: light-dark(rgb(0, 0, 0), rgb(255, 255, 255));&quot;&gt;-&amp;gt; Kelvin&quot;&lt;/span&gt;&lt;/div&gt;" style="shape=parallelogram;html=1;strokeWidth=2;perimeter=parallelogramPerimeter;whiteSpace=wrap;rounded=1;arcSize=12;size=0.23;" parent="1" vertex="1">
          <mxGeometry x="-1290" y="1680" width="160" height="30" as="geometry" />
        </mxCell>
        <mxCell id="FXJXPnf7FUrhk9hKkWCc-393" style="edgeStyle=orthogonalEdgeStyle;rounded=0;orthogonalLoop=1;jettySize=auto;html=1;" parent="1" source="FXJXPnf7FUrhk9hKkWCc-394" target="FXJXPnf7FUrhk9hKkWCc-396" edge="1">
          <mxGeometry relative="1" as="geometry" />
        </mxCell>
        <mxCell id="FXJXPnf7FUrhk9hKkWCc-394" value="Output&quot;Pilih jenis&lt;div&gt;konversi&quot;&lt;/div&gt;" style="shape=parallelogram;html=1;strokeWidth=2;perimeter=parallelogramPerimeter;whiteSpace=wrap;rounded=1;arcSize=12;size=0.23;" parent="1" vertex="1">
          <mxGeometry x="-1290" y="1730" width="160" height="30" as="geometry" />
        </mxCell>
        <mxCell id="FXJXPnf7FUrhk9hKkWCc-395" style="edgeStyle=orthogonalEdgeStyle;rounded=0;orthogonalLoop=1;jettySize=auto;html=1;" parent="1" source="FXJXPnf7FUrhk9hKkWCc-396" target="FXJXPnf7FUrhk9hKkWCc-398" edge="1">
          <mxGeometry relative="1" as="geometry" />
        </mxCell>
        <mxCell id="FXJXPnf7FUrhk9hKkWCc-396" value="Input con" style="shape=parallelogram;html=1;strokeWidth=2;perimeter=parallelogramPerimeter;whiteSpace=wrap;rounded=1;arcSize=12;size=0.23;" parent="1" vertex="1">
          <mxGeometry x="-1290" y="1780" width="160" height="20" as="geometry" />
        </mxCell>
        <mxCell id="FXJXPnf7FUrhk9hKkWCc-397" style="edgeStyle=orthogonalEdgeStyle;rounded=0;orthogonalLoop=1;jettySize=auto;html=1;" parent="1" source="FXJXPnf7FUrhk9hKkWCc-398" target="FXJXPnf7FUrhk9hKkWCc-400" edge="1">
          <mxGeometry relative="1" as="geometry" />
        </mxCell>
        <mxCell id="FXJXPnf7FUrhk9hKkWCc-398" value="Output&quot;Masukkan&lt;div&gt;&amp;nbsp;nila&lt;span style=&quot;background-color: transparent; color: light-dark(rgb(0, 0, 0), rgb(255, 255, 255));&quot;&gt;i&quot;&lt;/span&gt;&lt;/div&gt;" style="shape=parallelogram;html=1;strokeWidth=2;perimeter=parallelogramPerimeter;whiteSpace=wrap;rounded=1;arcSize=12;size=0.23;" parent="1" vertex="1">
          <mxGeometry x="-1290" y="1820" width="160" height="30" as="geometry" />
        </mxCell>
        <mxCell id="FXJXPnf7FUrhk9hKkWCc-399" style="edgeStyle=orthogonalEdgeStyle;rounded=0;orthogonalLoop=1;jettySize=auto;html=1;entryX=0.5;entryY=0;entryDx=0;entryDy=0;" parent="1" source="FXJXPnf7FUrhk9hKkWCc-400" target="FXJXPnf7FUrhk9hKkWCc-405" edge="1">
          <mxGeometry relative="1" as="geometry" />
        </mxCell>
        <mxCell id="FXJXPnf7FUrhk9hKkWCc-400" value="Input nilai" style="shape=parallelogram;html=1;strokeWidth=2;perimeter=parallelogramPerimeter;whiteSpace=wrap;rounded=1;arcSize=12;size=0.23;" parent="1" vertex="1">
          <mxGeometry x="-1280" y="1875" width="140" height="30" as="geometry" />
        </mxCell>
        <mxCell id="FXJXPnf7FUrhk9hKkWCc-404" style="edgeStyle=orthogonalEdgeStyle;rounded=0;orthogonalLoop=1;jettySize=auto;html=1;exitX=0.5;exitY=1;exitDx=0;exitDy=0;" parent="1" source="FXJXPnf7FUrhk9hKkWCc-398" target="FXJXPnf7FUrhk9hKkWCc-398" edge="1">
          <mxGeometry relative="1" as="geometry" />
        </mxCell>
        <mxCell id="FXJXPnf7FUrhk9hKkWCc-405" value="" style="verticalLabelPosition=bottom;verticalAlign=top;html=1;shape=offPageConnector;rounded=0;size=0.6153846153846154;" parent="1" vertex="1">
          <mxGeometry x="-1242.5" y="1935" width="65" height="65" as="geometry" />
        </mxCell>
        <mxCell id="FXJXPnf7FUrhk9hKkWCc-406" value="" style="verticalLabelPosition=bottom;verticalAlign=top;html=1;shape=mxgraph.flowchart.on-page_reference;" parent="1" vertex="1">
          <mxGeometry x="-1480" y="1460" width="60" height="60" as="geometry" />
        </mxCell>
        <mxCell id="FXJXPnf7FUrhk9hKkWCc-407" style="edgeStyle=orthogonalEdgeStyle;rounded=0;orthogonalLoop=1;jettySize=auto;html=1;entryX=1;entryY=0.5;entryDx=0;entryDy=0;entryPerimeter=0;" parent="1" source="FXJXPnf7FUrhk9hKkWCc-383" target="FXJXPnf7FUrhk9hKkWCc-406" edge="1">
          <mxGeometry relative="1" as="geometry" />
        </mxCell>
        <mxCell id="FXJXPnf7FUrhk9hKkWCc-465" style="edgeStyle=orthogonalEdgeStyle;rounded=0;orthogonalLoop=1;jettySize=auto;html=1;" parent="1" source="FXJXPnf7FUrhk9hKkWCc-462" target="FXJXPnf7FUrhk9hKkWCc-389" edge="1">
          <mxGeometry relative="1" as="geometry" />
        </mxCell>
        <mxCell id="FXJXPnf7FUrhk9hKkWCc-462" value="Output&quot;1.Celcius&lt;div&gt;&lt;span style=&quot;background-color: transparent; color: light-dark(rgb(0, 0, 0), rgb(255, 255, 255));&quot;&gt;-&amp;gt; Kelvin&quot;&lt;/span&gt;&lt;/div&gt;" style="shape=parallelogram;html=1;strokeWidth=2;perimeter=parallelogramPerimeter;whiteSpace=wrap;rounded=1;arcSize=12;size=0.23;" parent="1" vertex="1">
          <mxGeometry x="-1290" y="1570" width="160" height="30" as="geometry" />
        </mxCell>
        <mxCell id="FXJXPnf7FUrhk9hKkWCc-497" style="edgeStyle=orthogonalEdgeStyle;rounded=0;orthogonalLoop=1;jettySize=auto;html=1;entryX=0.5;entryY=0;entryDx=0;entryDy=0;" parent="1" source="FXJXPnf7FUrhk9hKkWCc-498" target="FXJXPnf7FUrhk9hKkWCc-502" edge="1">
          <mxGeometry relative="1" as="geometry" />
        </mxCell>
        <mxCell id="FXJXPnf7FUrhk9hKkWCc-498" value="con == 1" style="strokeWidth=2;html=1;shape=mxgraph.flowchart.decision;whiteSpace=wrap;" parent="1" vertex="1">
          <mxGeometry x="-1241.88" y="2180" width="70" height="80" as="geometry" />
        </mxCell>
        <mxCell id="FXJXPnf7FUrhk9hKkWCc-499" value="" style="verticalLabelPosition=bottom;verticalAlign=top;html=1;shape=offPageConnector;rounded=0;size=0.6153846153846154;" parent="1" vertex="1">
          <mxGeometry x="-1239.38" y="2060" width="65" height="65" as="geometry" />
        </mxCell>
        <mxCell id="FXJXPnf7FUrhk9hKkWCc-500" style="edgeStyle=orthogonalEdgeStyle;rounded=0;orthogonalLoop=1;jettySize=auto;html=1;entryX=0.5;entryY=0;entryDx=0;entryDy=0;entryPerimeter=0;" parent="1" source="FXJXPnf7FUrhk9hKkWCc-499" target="FXJXPnf7FUrhk9hKkWCc-498" edge="1">
          <mxGeometry relative="1" as="geometry" />
        </mxCell>
        <mxCell id="FXJXPnf7FUrhk9hKkWCc-501" style="edgeStyle=orthogonalEdgeStyle;rounded=0;orthogonalLoop=1;jettySize=auto;html=1;" parent="1" source="FXJXPnf7FUrhk9hKkWCc-502" target="FXJXPnf7FUrhk9hKkWCc-503" edge="1">
          <mxGeometry relative="1" as="geometry" />
        </mxCell>
        <mxCell id="FXJXPnf7FUrhk9hKkWCc-502" value="hasil = nilai + 273.15" style="rounded=1;whiteSpace=wrap;html=1;absoluteArcSize=1;arcSize=14;strokeWidth=2;" parent="1" vertex="1">
          <mxGeometry x="-1256.88" y="2360" width="100" height="40" as="geometry" />
        </mxCell>
        <mxCell id="FXJXPnf7FUrhk9hKkWCc-503" value="Output&quot;Hasil&amp;nbsp;&lt;div&gt;&lt;span style=&quot;background-color: transparent; color: light-dark(rgb(0, 0, 0), rgb(255, 255, 255));&quot;&gt;konversi ke&amp;nbsp;&lt;/span&gt;&lt;/div&gt;&lt;span style=&quot;background-color: transparent; color: light-dark(rgb(0, 0, 0), rgb(255, 255, 255));&quot;&gt;kelvin&lt;/span&gt;&lt;span style=&quot;background-color: transparent; color: light-dark(rgb(0, 0, 0), rgb(255, 255, 255));&quot;&gt;:&quot;,hasil&lt;/span&gt;" style="shape=parallelogram;html=1;strokeWidth=2;perimeter=parallelogramPerimeter;whiteSpace=wrap;rounded=1;arcSize=12;size=0.23;" parent="1" vertex="1">
          <mxGeometry x="-1273.75" y="2480" width="133.75" height="50" as="geometry" />
        </mxCell>
        <mxCell id="FXJXPnf7FUrhk9hKkWCc-504" style="edgeStyle=orthogonalEdgeStyle;rounded=0;orthogonalLoop=1;jettySize=auto;html=1;" parent="1" source="FXJXPnf7FUrhk9hKkWCc-505" target="FXJXPnf7FUrhk9hKkWCc-512" edge="1">
          <mxGeometry relative="1" as="geometry" />
        </mxCell>
        <mxCell id="FXJXPnf7FUrhk9hKkWCc-505" value="con == 2" style="strokeWidth=2;html=1;shape=mxgraph.flowchart.decision;whiteSpace=wrap;" parent="1" vertex="1">
          <mxGeometry x="-1379.38" y="2180" width="70" height="80" as="geometry" />
        </mxCell>
        <mxCell id="FXJXPnf7FUrhk9hKkWCc-506" style="edgeStyle=orthogonalEdgeStyle;rounded=0;orthogonalLoop=1;jettySize=auto;html=1;entryX=1;entryY=0.5;entryDx=0;entryDy=0;entryPerimeter=0;" parent="1" source="FXJXPnf7FUrhk9hKkWCc-498" target="FXJXPnf7FUrhk9hKkWCc-505" edge="1">
          <mxGeometry relative="1" as="geometry" />
        </mxCell>
        <mxCell id="FXJXPnf7FUrhk9hKkWCc-507" style="edgeStyle=orthogonalEdgeStyle;rounded=0;orthogonalLoop=1;jettySize=auto;html=1;" parent="1" source="FXJXPnf7FUrhk9hKkWCc-509" target="FXJXPnf7FUrhk9hKkWCc-514" edge="1">
          <mxGeometry relative="1" as="geometry" />
        </mxCell>
        <mxCell id="FXJXPnf7FUrhk9hKkWCc-508" style="edgeStyle=orthogonalEdgeStyle;rounded=0;orthogonalLoop=1;jettySize=auto;html=1;entryX=1;entryY=0.5;entryDx=0;entryDy=0;" parent="1" source="FXJXPnf7FUrhk9hKkWCc-509" target="FXJXPnf7FUrhk9hKkWCc-522" edge="1">
          <mxGeometry relative="1" as="geometry" />
        </mxCell>
        <mxCell id="FXJXPnf7FUrhk9hKkWCc-509" value="con == 3" style="strokeWidth=2;html=1;shape=mxgraph.flowchart.decision;whiteSpace=wrap;" parent="1" vertex="1">
          <mxGeometry x="-1529.38" y="2180" width="70" height="80" as="geometry" />
        </mxCell>
        <mxCell id="FXJXPnf7FUrhk9hKkWCc-510" style="edgeStyle=orthogonalEdgeStyle;rounded=0;orthogonalLoop=1;jettySize=auto;html=1;entryX=1;entryY=0.5;entryDx=0;entryDy=0;entryPerimeter=0;" parent="1" source="FXJXPnf7FUrhk9hKkWCc-505" target="FXJXPnf7FUrhk9hKkWCc-509" edge="1">
          <mxGeometry relative="1" as="geometry" />
        </mxCell>
        <mxCell id="FXJXPnf7FUrhk9hKkWCc-511" style="edgeStyle=orthogonalEdgeStyle;rounded=0;orthogonalLoop=1;jettySize=auto;html=1;" parent="1" source="FXJXPnf7FUrhk9hKkWCc-512" target="FXJXPnf7FUrhk9hKkWCc-515" edge="1">
          <mxGeometry relative="1" as="geometry" />
        </mxCell>
        <mxCell id="FXJXPnf7FUrhk9hKkWCc-512" value="hasil = (nilai - 32)&lt;div&gt;* 5/9 + 273.15&lt;/div&gt;" style="rounded=1;whiteSpace=wrap;html=1;absoluteArcSize=1;arcSize=14;strokeWidth=2;" parent="1" vertex="1">
          <mxGeometry x="-1394.38" y="2360" width="100" height="40" as="geometry" />
        </mxCell>
        <mxCell id="FXJXPnf7FUrhk9hKkWCc-513" style="edgeStyle=orthogonalEdgeStyle;rounded=0;orthogonalLoop=1;jettySize=auto;html=1;" parent="1" source="FXJXPnf7FUrhk9hKkWCc-514" target="FXJXPnf7FUrhk9hKkWCc-516" edge="1">
          <mxGeometry relative="1" as="geometry" />
        </mxCell>
        <mxCell id="FXJXPnf7FUrhk9hKkWCc-514" value="hasil = (nilai * 5/4)&lt;div&gt;+ 273.15&lt;/div&gt;" style="rounded=1;whiteSpace=wrap;html=1;absoluteArcSize=1;arcSize=14;strokeWidth=2;" parent="1" vertex="1">
          <mxGeometry x="-1544.38" y="2360" width="100" height="40" as="geometry" />
        </mxCell>
        <mxCell id="FXJXPnf7FUrhk9hKkWCc-515" value="Output&quot;Hasil&amp;nbsp;&lt;div&gt;&lt;span style=&quot;background-color: transparent; color: light-dark(rgb(0, 0, 0), rgb(255, 255, 255));&quot;&gt;konversi ke&amp;nbsp;&lt;/span&gt;&lt;/div&gt;&lt;div&gt;&lt;span style=&quot;background-color: transparent; color: light-dark(rgb(0, 0, 0), rgb(255, 255, 255));&quot;&gt;kelvin&lt;/span&gt;&lt;span style=&quot;background-color: transparent; color: light-dark(rgb(0, 0, 0), rgb(255, 255, 255));&quot;&gt;:&quot;,hasil&lt;/span&gt;&lt;/div&gt;" style="shape=parallelogram;html=1;strokeWidth=2;perimeter=parallelogramPerimeter;whiteSpace=wrap;rounded=1;arcSize=12;size=0.23;" parent="1" vertex="1">
          <mxGeometry x="-1404.3700000000001" y="2480" width="119.99" height="50" as="geometry" />
        </mxCell>
        <mxCell id="FXJXPnf7FUrhk9hKkWCc-516" value="Output&quot;Hasil&amp;nbsp;&lt;div&gt;&lt;span style=&quot;background-color: transparent; color: light-dark(rgb(0, 0, 0), rgb(255, 255, 255));&quot;&gt;konversi ke&amp;nbsp;&lt;/span&gt;&lt;/div&gt;&lt;div&gt;&lt;span style=&quot;background-color: transparent; color: light-dark(rgb(0, 0, 0), rgb(255, 255, 255));&quot;&gt;kelvin:&quot;,hasil&lt;/span&gt;&lt;/div&gt;" style="shape=parallelogram;html=1;strokeWidth=2;perimeter=parallelogramPerimeter;whiteSpace=wrap;rounded=1;arcSize=12;size=0.23;" parent="1" vertex="1">
          <mxGeometry x="-1555.3200000000002" y="2480" width="121.87" height="50" as="geometry" />
        </mxCell>
        <mxCell id="FXJXPnf7FUrhk9hKkWCc-517" value="yes" style="text;html=1;align=center;verticalAlign=middle;resizable=0;points=[];autosize=1;strokeColor=none;fillColor=none;" parent="1" vertex="1">
          <mxGeometry x="-1539.38" y="2260" width="40" height="30" as="geometry" />
        </mxCell>
        <mxCell id="FXJXPnf7FUrhk9hKkWCc-518" value="&lt;span style=&quot;color: rgb(0, 0, 0); font-family: Helvetica; font-size: 12px; font-style: normal; font-variant-ligatures: normal; font-variant-caps: normal; font-weight: 400; letter-spacing: normal; orphans: 2; text-align: center; text-indent: 0px; text-transform: none; widows: 2; word-spacing: 0px; -webkit-text-stroke-width: 0px; white-space: nowrap; background-color: rgb(236, 236, 236); text-decoration-thickness: initial; text-decoration-style: initial; text-decoration-color: initial; display: inline !important; float: none;&quot;&gt;yes&lt;/span&gt;" style="text;whiteSpace=wrap;html=1;" parent="1" vertex="1">
          <mxGeometry x="-1389.38" y="2270" width="50" height="40" as="geometry" />
        </mxCell>
        <mxCell id="FXJXPnf7FUrhk9hKkWCc-519" value="&lt;span style=&quot;color: rgb(0, 0, 0); font-family: Helvetica; font-size: 12px; font-style: normal; font-variant-ligatures: normal; font-variant-caps: normal; font-weight: 400; letter-spacing: normal; orphans: 2; text-align: center; text-indent: 0px; text-transform: none; widows: 2; word-spacing: 0px; -webkit-text-stroke-width: 0px; white-space: nowrap; background-color: rgb(236, 236, 236); text-decoration-thickness: initial; text-decoration-style: initial; text-decoration-color: initial; display: inline !important; float: none;&quot;&gt;yes&lt;/span&gt;" style="text;whiteSpace=wrap;html=1;" parent="1" vertex="1">
          <mxGeometry x="-1244.38" y="2270" width="50" height="40" as="geometry" />
        </mxCell>
        <mxCell id="FXJXPnf7FUrhk9hKkWCc-520" value="no" style="text;html=1;align=center;verticalAlign=middle;resizable=0;points=[];autosize=1;strokeColor=none;fillColor=none;" parent="1" vertex="1">
          <mxGeometry x="-1429.38" y="2190" width="40" height="30" as="geometry" />
        </mxCell>
        <mxCell id="FXJXPnf7FUrhk9hKkWCc-521" value="no" style="text;html=1;align=center;verticalAlign=middle;resizable=0;points=[];autosize=1;strokeColor=none;fillColor=none;" parent="1" vertex="1">
          <mxGeometry x="-1296.88" y="2190" width="40" height="30" as="geometry" />
        </mxCell>
        <mxCell id="FXJXPnf7FUrhk9hKkWCc-522" value="Output&quot;Pilihan&amp;nbsp;&lt;div&gt;&lt;span style=&quot;background-color: transparent; color: light-dark(rgb(0, 0, 0), rgb(255, 255, 255));&quot;&gt;konversi suhu&lt;/span&gt;&lt;/div&gt;&lt;div&gt;&lt;span style=&quot;background-color: transparent; color: light-dark(rgb(0, 0, 0), rgb(255, 255, 255));&quot;&gt;tidak ada!&quot;l&lt;/span&gt;&lt;/div&gt;" style="shape=parallelogram;html=1;strokeWidth=2;perimeter=parallelogramPerimeter;whiteSpace=wrap;rounded=1;arcSize=12;size=0.23;" parent="1" vertex="1">
          <mxGeometry x="-1734.38" y="2195" width="133.75" height="50" as="geometry" />
        </mxCell>
        <mxCell id="FXJXPnf7FUrhk9hKkWCc-523" value="no" style="text;html=1;align=center;verticalAlign=middle;resizable=0;points=[];autosize=1;strokeColor=none;fillColor=none;" parent="1" vertex="1">
          <mxGeometry x="-1579.38" y="2190" width="40" height="30" as="geometry" />
        </mxCell>
        <mxCell id="FXJXPnf7FUrhk9hKkWCc-524" value="End" style="strokeWidth=2;html=1;shape=mxgraph.flowchart.start_1;whiteSpace=wrap;" parent="1" vertex="1">
          <mxGeometry x="-1717.5" y="2320" width="100" height="42" as="geometry" />
        </mxCell>
        <mxCell id="FXJXPnf7FUrhk9hKkWCc-525" style="edgeStyle=orthogonalEdgeStyle;rounded=0;orthogonalLoop=1;jettySize=auto;html=1;entryX=0.5;entryY=0;entryDx=0;entryDy=0;entryPerimeter=0;" parent="1" source="FXJXPnf7FUrhk9hKkWCc-522" target="FXJXPnf7FUrhk9hKkWCc-524" edge="1">
          <mxGeometry relative="1" as="geometry" />
        </mxCell>
        <mxCell id="FXJXPnf7FUrhk9hKkWCc-552" value="" style="verticalLabelPosition=bottom;verticalAlign=top;html=1;shape=mxgraph.flowchart.on-page_reference;" parent="1" vertex="1">
          <mxGeometry x="-2060" y="1350" width="60" height="60" as="geometry" />
        </mxCell>
        <mxCell id="FXJXPnf7FUrhk9hKkWCc-553" style="edgeStyle=orthogonalEdgeStyle;rounded=0;orthogonalLoop=1;jettySize=auto;html=1;entryX=0.5;entryY=0;entryDx=0;entryDy=0;" parent="1" source="FXJXPnf7FUrhk9hKkWCc-554" target="FXJXPnf7FUrhk9hKkWCc-557" edge="1">
          <mxGeometry relative="1" as="geometry" />
        </mxCell>
        <mxCell id="FXJXPnf7FUrhk9hKkWCc-554" value="pil == 4" style="strokeWidth=2;html=1;shape=mxgraph.flowchart.decision;whiteSpace=wrap;" parent="1" vertex="1">
          <mxGeometry x="-2065" y="1450" width="70" height="80" as="geometry" />
        </mxCell>
        <mxCell id="FXJXPnf7FUrhk9hKkWCc-555" style="edgeStyle=orthogonalEdgeStyle;rounded=0;orthogonalLoop=1;jettySize=auto;html=1;entryX=0.5;entryY=0;entryDx=0;entryDy=0;entryPerimeter=0;" parent="1" source="FXJXPnf7FUrhk9hKkWCc-552" target="FXJXPnf7FUrhk9hKkWCc-554" edge="1">
          <mxGeometry relative="1" as="geometry" />
        </mxCell>
        <mxCell id="FXJXPnf7FUrhk9hKkWCc-556" style="edgeStyle=orthogonalEdgeStyle;rounded=0;orthogonalLoop=1;jettySize=auto;html=1;" parent="1" source="FXJXPnf7FUrhk9hKkWCc-557" target="FXJXPnf7FUrhk9hKkWCc-576" edge="1">
          <mxGeometry relative="1" as="geometry" />
        </mxCell>
        <mxCell id="FXJXPnf7FUrhk9hKkWCc-557" value="Output&quot;Konversi&lt;div&gt;&lt;span style=&quot;background-color: transparent; color: light-dark(rgb(0, 0, 0), rgb(255, 255, 255));&quot;&gt;Waktu ke Detik&quot;&lt;/span&gt;&lt;/div&gt;" style="shape=parallelogram;html=1;strokeWidth=2;perimeter=parallelogramPerimeter;whiteSpace=wrap;rounded=1;arcSize=12;size=0.23;" parent="1" vertex="1">
          <mxGeometry x="-1990" y="1540" width="160" height="30" as="geometry" />
        </mxCell>
        <mxCell id="FXJXPnf7FUrhk9hKkWCc-577" style="edgeStyle=orthogonalEdgeStyle;rounded=0;orthogonalLoop=1;jettySize=auto;html=1;entryX=0.5;entryY=0;entryDx=0;entryDy=0;" parent="1" source="FXJXPnf7FUrhk9hKkWCc-559" target="FXJXPnf7FUrhk9hKkWCc-564" edge="1">
          <mxGeometry relative="1" as="geometry" />
        </mxCell>
        <mxCell id="FXJXPnf7FUrhk9hKkWCc-559" value="Output&quot;2.Jam&lt;div&gt;&lt;span style=&quot;background-color: transparent; color: light-dark(rgb(0, 0, 0), rgb(255, 255, 255));&quot;&gt;-&amp;gt; Detik&quot;&lt;/span&gt;&lt;/div&gt;" style="shape=parallelogram;html=1;strokeWidth=2;perimeter=parallelogramPerimeter;whiteSpace=wrap;rounded=1;arcSize=12;size=0.23;" parent="1" vertex="1">
          <mxGeometry x="-1995" y="1640" width="170" height="30" as="geometry" />
        </mxCell>
        <mxCell id="FXJXPnf7FUrhk9hKkWCc-560" style="edgeStyle=orthogonalEdgeStyle;rounded=0;orthogonalLoop=1;jettySize=auto;html=1;exitX=0.5;exitY=1;exitDx=0;exitDy=0;" parent="1" source="FXJXPnf7FUrhk9hKkWCc-559" target="FXJXPnf7FUrhk9hKkWCc-559" edge="1">
          <mxGeometry relative="1" as="geometry" />
        </mxCell>
        <mxCell id="FXJXPnf7FUrhk9hKkWCc-563" style="edgeStyle=orthogonalEdgeStyle;rounded=0;orthogonalLoop=1;jettySize=auto;html=1;" parent="1" source="FXJXPnf7FUrhk9hKkWCc-564" target="FXJXPnf7FUrhk9hKkWCc-566" edge="1">
          <mxGeometry relative="1" as="geometry" />
        </mxCell>
        <mxCell id="FXJXPnf7FUrhk9hKkWCc-564" value="Output&quot;Pilih jenis&lt;div&gt;konversi&quot;&lt;/div&gt;" style="shape=parallelogram;html=1;strokeWidth=2;perimeter=parallelogramPerimeter;whiteSpace=wrap;rounded=1;arcSize=12;size=0.23;" parent="1" vertex="1">
          <mxGeometry x="-1990" y="1690" width="160" height="30" as="geometry" />
        </mxCell>
        <mxCell id="FXJXPnf7FUrhk9hKkWCc-565" style="edgeStyle=orthogonalEdgeStyle;rounded=0;orthogonalLoop=1;jettySize=auto;html=1;" parent="1" source="FXJXPnf7FUrhk9hKkWCc-566" target="FXJXPnf7FUrhk9hKkWCc-568" edge="1">
          <mxGeometry relative="1" as="geometry" />
        </mxCell>
        <mxCell id="FXJXPnf7FUrhk9hKkWCc-566" value="Input con" style="shape=parallelogram;html=1;strokeWidth=2;perimeter=parallelogramPerimeter;whiteSpace=wrap;rounded=1;arcSize=12;size=0.23;" parent="1" vertex="1">
          <mxGeometry x="-1990" y="1745" width="160" height="20" as="geometry" />
        </mxCell>
        <mxCell id="FXJXPnf7FUrhk9hKkWCc-567" style="edgeStyle=orthogonalEdgeStyle;rounded=0;orthogonalLoop=1;jettySize=auto;html=1;" parent="1" source="FXJXPnf7FUrhk9hKkWCc-568" target="FXJXPnf7FUrhk9hKkWCc-570" edge="1">
          <mxGeometry relative="1" as="geometry" />
        </mxCell>
        <mxCell id="FXJXPnf7FUrhk9hKkWCc-568" value="Output&quot;Masukkan&lt;div&gt;&amp;nbsp;nila&lt;span style=&quot;background-color: transparent; color: light-dark(rgb(0, 0, 0), rgb(255, 255, 255));&quot;&gt;i&quot;&lt;/span&gt;&lt;/div&gt;" style="shape=parallelogram;html=1;strokeWidth=2;perimeter=parallelogramPerimeter;whiteSpace=wrap;rounded=1;arcSize=12;size=0.23;" parent="1" vertex="1">
          <mxGeometry x="-1990" y="1790" width="160" height="30" as="geometry" />
        </mxCell>
        <mxCell id="FXJXPnf7FUrhk9hKkWCc-569" style="edgeStyle=orthogonalEdgeStyle;rounded=0;orthogonalLoop=1;jettySize=auto;html=1;entryX=0.5;entryY=0;entryDx=0;entryDy=0;" parent="1" source="FXJXPnf7FUrhk9hKkWCc-570" target="FXJXPnf7FUrhk9hKkWCc-572" edge="1">
          <mxGeometry relative="1" as="geometry" />
        </mxCell>
        <mxCell id="FXJXPnf7FUrhk9hKkWCc-570" value="Input nilai" style="shape=parallelogram;html=1;strokeWidth=2;perimeter=parallelogramPerimeter;whiteSpace=wrap;rounded=1;arcSize=12;size=0.23;" parent="1" vertex="1">
          <mxGeometry x="-1980" y="1840" width="140" height="30" as="geometry" />
        </mxCell>
        <mxCell id="FXJXPnf7FUrhk9hKkWCc-571" style="edgeStyle=orthogonalEdgeStyle;rounded=0;orthogonalLoop=1;jettySize=auto;html=1;exitX=0.5;exitY=1;exitDx=0;exitDy=0;" parent="1" source="FXJXPnf7FUrhk9hKkWCc-568" target="FXJXPnf7FUrhk9hKkWCc-568" edge="1">
          <mxGeometry relative="1" as="geometry" />
        </mxCell>
        <mxCell id="FXJXPnf7FUrhk9hKkWCc-572" value="" style="verticalLabelPosition=bottom;verticalAlign=top;html=1;shape=offPageConnector;rounded=0;size=0.6153846153846154;" parent="1" vertex="1">
          <mxGeometry x="-1942.5" y="1900" width="65" height="65" as="geometry" />
        </mxCell>
        <mxCell id="FXJXPnf7FUrhk9hKkWCc-573" value="" style="verticalLabelPosition=bottom;verticalAlign=top;html=1;shape=mxgraph.flowchart.on-page_reference;" parent="1" vertex="1">
          <mxGeometry x="-2185" y="1460" width="60" height="60" as="geometry" />
        </mxCell>
        <mxCell id="FXJXPnf7FUrhk9hKkWCc-574" style="edgeStyle=orthogonalEdgeStyle;rounded=0;orthogonalLoop=1;jettySize=auto;html=1;entryX=1;entryY=0.5;entryDx=0;entryDy=0;entryPerimeter=0;" parent="1" source="FXJXPnf7FUrhk9hKkWCc-554" target="FXJXPnf7FUrhk9hKkWCc-573" edge="1">
          <mxGeometry relative="1" as="geometry" />
        </mxCell>
        <mxCell id="FXJXPnf7FUrhk9hKkWCc-575" style="edgeStyle=orthogonalEdgeStyle;rounded=0;orthogonalLoop=1;jettySize=auto;html=1;" parent="1" source="FXJXPnf7FUrhk9hKkWCc-576" target="FXJXPnf7FUrhk9hKkWCc-559" edge="1">
          <mxGeometry relative="1" as="geometry" />
        </mxCell>
        <mxCell id="FXJXPnf7FUrhk9hKkWCc-576" value="Output&quot;1.Menit&lt;div&gt;&lt;span style=&quot;background-color: transparent; color: light-dark(rgb(0, 0, 0), rgb(255, 255, 255));&quot;&gt;-&amp;gt; Detik&quot;&lt;/span&gt;&lt;/div&gt;" style="shape=parallelogram;html=1;strokeWidth=2;perimeter=parallelogramPerimeter;whiteSpace=wrap;rounded=1;arcSize=12;size=0.23;" parent="1" vertex="1">
          <mxGeometry x="-1990" y="1590" width="160" height="30" as="geometry" />
        </mxCell>
        <mxCell id="FXJXPnf7FUrhk9hKkWCc-694" style="edgeStyle=orthogonalEdgeStyle;rounded=0;orthogonalLoop=1;jettySize=auto;html=1;entryX=0.5;entryY=0;entryDx=0;entryDy=0;" parent="1" source="FXJXPnf7FUrhk9hKkWCc-695" target="FXJXPnf7FUrhk9hKkWCc-699" edge="1">
          <mxGeometry relative="1" as="geometry" />
        </mxCell>
        <mxCell id="FXJXPnf7FUrhk9hKkWCc-695" value="con == 1" style="strokeWidth=2;html=1;shape=mxgraph.flowchart.decision;whiteSpace=wrap;" parent="1" vertex="1">
          <mxGeometry x="-1945" y="2182.5" width="70" height="80" as="geometry" />
        </mxCell>
        <mxCell id="FXJXPnf7FUrhk9hKkWCc-696" value="" style="verticalLabelPosition=bottom;verticalAlign=top;html=1;shape=offPageConnector;rounded=0;size=0.6153846153846154;" parent="1" vertex="1">
          <mxGeometry x="-1942.5" y="2050" width="65" height="65" as="geometry" />
        </mxCell>
        <mxCell id="FXJXPnf7FUrhk9hKkWCc-697" style="edgeStyle=orthogonalEdgeStyle;rounded=0;orthogonalLoop=1;jettySize=auto;html=1;entryX=0.5;entryY=0;entryDx=0;entryDy=0;entryPerimeter=0;" parent="1" source="FXJXPnf7FUrhk9hKkWCc-696" target="FXJXPnf7FUrhk9hKkWCc-695" edge="1">
          <mxGeometry relative="1" as="geometry" />
        </mxCell>
        <mxCell id="FXJXPnf7FUrhk9hKkWCc-698" style="edgeStyle=orthogonalEdgeStyle;rounded=0;orthogonalLoop=1;jettySize=auto;html=1;" parent="1" source="FXJXPnf7FUrhk9hKkWCc-699" target="FXJXPnf7FUrhk9hKkWCc-700" edge="1">
          <mxGeometry relative="1" as="geometry" />
        </mxCell>
        <mxCell id="FXJXPnf7FUrhk9hKkWCc-699" value="hasil = nilai * 60" style="rounded=1;whiteSpace=wrap;html=1;absoluteArcSize=1;arcSize=14;strokeWidth=2;" parent="1" vertex="1">
          <mxGeometry x="-1960" y="2315" width="100" height="40" as="geometry" />
        </mxCell>
        <mxCell id="FXJXPnf7FUrhk9hKkWCc-700" value="Output&quot;Hasil&amp;nbsp;&lt;div&gt;&lt;span style=&quot;background-color: transparent; color: light-dark(rgb(0, 0, 0), rgb(255, 255, 255));&quot;&gt;detiknya:&quot;&lt;/span&gt;&lt;/div&gt;&lt;div&gt;&lt;span style=&quot;background-color: transparent; color: light-dark(rgb(0, 0, 0), rgb(255, 255, 255));&quot;&gt;,hasil&lt;/span&gt;&lt;/div&gt;" style="shape=parallelogram;html=1;strokeWidth=2;perimeter=parallelogramPerimeter;whiteSpace=wrap;rounded=1;arcSize=12;size=0.23;" parent="1" vertex="1">
          <mxGeometry x="-1969.22" y="2435" width="118.43" height="50" as="geometry" />
        </mxCell>
        <mxCell id="FXJXPnf7FUrhk9hKkWCc-701" style="edgeStyle=orthogonalEdgeStyle;rounded=0;orthogonalLoop=1;jettySize=auto;html=1;" parent="1" source="FXJXPnf7FUrhk9hKkWCc-702" target="FXJXPnf7FUrhk9hKkWCc-709" edge="1">
          <mxGeometry relative="1" as="geometry" />
        </mxCell>
        <mxCell id="FXJXPnf7FUrhk9hKkWCc-724" style="edgeStyle=orthogonalEdgeStyle;rounded=0;orthogonalLoop=1;jettySize=auto;html=1;entryX=1;entryY=0.5;entryDx=0;entryDy=0;" parent="1" source="FXJXPnf7FUrhk9hKkWCc-702" target="FXJXPnf7FUrhk9hKkWCc-719" edge="1">
          <mxGeometry relative="1" as="geometry" />
        </mxCell>
        <mxCell id="FXJXPnf7FUrhk9hKkWCc-702" value="con == 2" style="strokeWidth=2;html=1;shape=mxgraph.flowchart.decision;whiteSpace=wrap;" parent="1" vertex="1">
          <mxGeometry x="-2060" y="2182.5" width="70" height="80" as="geometry" />
        </mxCell>
        <mxCell id="FXJXPnf7FUrhk9hKkWCc-703" style="edgeStyle=orthogonalEdgeStyle;rounded=0;orthogonalLoop=1;jettySize=auto;html=1;entryX=1;entryY=0.5;entryDx=0;entryDy=0;entryPerimeter=0;" parent="1" source="FXJXPnf7FUrhk9hKkWCc-695" target="FXJXPnf7FUrhk9hKkWCc-702" edge="1">
          <mxGeometry relative="1" as="geometry" />
        </mxCell>
        <mxCell id="FXJXPnf7FUrhk9hKkWCc-708" style="edgeStyle=orthogonalEdgeStyle;rounded=0;orthogonalLoop=1;jettySize=auto;html=1;" parent="1" source="FXJXPnf7FUrhk9hKkWCc-709" target="FXJXPnf7FUrhk9hKkWCc-712" edge="1">
          <mxGeometry relative="1" as="geometry" />
        </mxCell>
        <mxCell id="FXJXPnf7FUrhk9hKkWCc-709" value="hasil = nilai&amp;nbsp;&lt;span style=&quot;background-color: transparent; color: light-dark(rgb(0, 0, 0), rgb(255, 255, 255));&quot;&gt;*&amp;nbsp; 3600&lt;/span&gt;" style="rounded=1;whiteSpace=wrap;html=1;absoluteArcSize=1;arcSize=14;strokeWidth=2;" parent="1" vertex="1">
          <mxGeometry x="-2075" y="2315" width="100" height="40" as="geometry" />
        </mxCell>
        <mxCell id="FXJXPnf7FUrhk9hKkWCc-712" value="Output&quot;Hasil&amp;nbsp;&lt;div&gt;&lt;span style=&quot;background-color: transparent; color: light-dark(rgb(0, 0, 0), rgb(255, 255, 255));&quot;&gt;detiknya:&quot;&lt;/span&gt;&lt;/div&gt;&lt;div&gt;&lt;span style=&quot;background-color: transparent; color: light-dark(rgb(0, 0, 0), rgb(255, 255, 255));&quot;&gt;,hasil&lt;/span&gt;&lt;/div&gt;" style="shape=parallelogram;html=1;strokeWidth=2;perimeter=parallelogramPerimeter;whiteSpace=wrap;rounded=1;arcSize=12;size=0.23;" parent="1" vertex="1">
          <mxGeometry x="-2085" y="2435" width="119.99" height="50" as="geometry" />
        </mxCell>
        <mxCell id="FXJXPnf7FUrhk9hKkWCc-715" value="&lt;span style=&quot;color: rgb(0, 0, 0); font-family: Helvetica; font-size: 12px; font-style: normal; font-variant-ligatures: normal; font-variant-caps: normal; font-weight: 400; letter-spacing: normal; orphans: 2; text-align: center; text-indent: 0px; text-transform: none; widows: 2; word-spacing: 0px; -webkit-text-stroke-width: 0px; white-space: nowrap; background-color: rgb(236, 236, 236); text-decoration-thickness: initial; text-decoration-style: initial; text-decoration-color: initial; display: inline !important; float: none;&quot;&gt;yes&lt;/span&gt;" style="text;whiteSpace=wrap;html=1;" parent="1" vertex="1">
          <mxGeometry x="-2065" y="2270" width="50" height="40" as="geometry" />
        </mxCell>
        <mxCell id="FXJXPnf7FUrhk9hKkWCc-716" value="&lt;span style=&quot;color: rgb(0, 0, 0); font-family: Helvetica; font-size: 12px; font-style: normal; font-variant-ligatures: normal; font-variant-caps: normal; font-weight: 400; letter-spacing: normal; orphans: 2; text-align: center; text-indent: 0px; text-transform: none; widows: 2; word-spacing: 0px; -webkit-text-stroke-width: 0px; white-space: nowrap; background-color: rgb(236, 236, 236); text-decoration-thickness: initial; text-decoration-style: initial; text-decoration-color: initial; display: inline !important; float: none;&quot;&gt;yes&lt;/span&gt;" style="text;whiteSpace=wrap;html=1;" parent="1" vertex="1">
          <mxGeometry x="-1950" y="2272" width="50" height="40" as="geometry" />
        </mxCell>
        <mxCell id="FXJXPnf7FUrhk9hKkWCc-718" value="no" style="text;html=1;align=center;verticalAlign=middle;resizable=0;points=[];autosize=1;strokeColor=none;fillColor=none;" parent="1" vertex="1">
          <mxGeometry x="-1985" y="2195" width="40" height="30" as="geometry" />
        </mxCell>
        <mxCell id="FXJXPnf7FUrhk9hKkWCc-719" value="Output&quot;Pilihan&amp;nbsp;&lt;div&gt;&lt;span style=&quot;background-color: transparent; color: light-dark(rgb(0, 0, 0), rgb(255, 255, 255));&quot;&gt;konversi waktu&lt;/span&gt;&lt;/div&gt;&lt;div&gt;&lt;span style=&quot;background-color: transparent; color: light-dark(rgb(0, 0, 0), rgb(255, 255, 255));&quot;&gt;tidak ada!&quot;l&lt;/span&gt;&lt;/div&gt;" style="shape=parallelogram;html=1;strokeWidth=2;perimeter=parallelogramPerimeter;whiteSpace=wrap;rounded=1;arcSize=12;size=0.23;" parent="1" vertex="1">
          <mxGeometry x="-2240.94" y="2197.5" width="133.75" height="50" as="geometry" />
        </mxCell>
        <mxCell id="FXJXPnf7FUrhk9hKkWCc-721" value="End" style="strokeWidth=2;html=1;shape=mxgraph.flowchart.start_1;whiteSpace=wrap;" parent="1" vertex="1">
          <mxGeometry x="-2224.06" y="2318" width="100" height="42" as="geometry" />
        </mxCell>
        <mxCell id="FXJXPnf7FUrhk9hKkWCc-722" style="edgeStyle=orthogonalEdgeStyle;rounded=0;orthogonalLoop=1;jettySize=auto;html=1;entryX=0.5;entryY=0;entryDx=0;entryDy=0;entryPerimeter=0;" parent="1" source="FXJXPnf7FUrhk9hKkWCc-719" target="FXJXPnf7FUrhk9hKkWCc-721" edge="1">
          <mxGeometry relative="1" as="geometry" />
        </mxCell>
        <mxCell id="FXJXPnf7FUrhk9hKkWCc-748" value="" style="verticalLabelPosition=bottom;verticalAlign=top;html=1;shape=mxgraph.flowchart.on-page_reference;" parent="1" vertex="1">
          <mxGeometry x="-2630" y="1360" width="60" height="60" as="geometry" />
        </mxCell>
        <mxCell id="FXJXPnf7FUrhk9hKkWCc-749" style="edgeStyle=orthogonalEdgeStyle;rounded=0;orthogonalLoop=1;jettySize=auto;html=1;entryX=0.5;entryY=0;entryDx=0;entryDy=0;" parent="1" source="FXJXPnf7FUrhk9hKkWCc-750" target="FXJXPnf7FUrhk9hKkWCc-753" edge="1">
          <mxGeometry relative="1" as="geometry" />
        </mxCell>
        <mxCell id="FXJXPnf7FUrhk9hKkWCc-1015" style="edgeStyle=orthogonalEdgeStyle;rounded=0;orthogonalLoop=1;jettySize=auto;html=1;entryX=0.5;entryY=0;entryDx=0;entryDy=0;" parent="1" source="FXJXPnf7FUrhk9hKkWCc-750" target="FXJXPnf7FUrhk9hKkWCc-1014" edge="1">
          <mxGeometry relative="1" as="geometry" />
        </mxCell>
        <mxCell id="FXJXPnf7FUrhk9hKkWCc-750" value="pil == 5" style="strokeWidth=2;html=1;shape=mxgraph.flowchart.decision;whiteSpace=wrap;" parent="1" vertex="1">
          <mxGeometry x="-2635" y="1455" width="70" height="80" as="geometry" />
        </mxCell>
        <mxCell id="FXJXPnf7FUrhk9hKkWCc-751" style="edgeStyle=orthogonalEdgeStyle;rounded=0;orthogonalLoop=1;jettySize=auto;html=1;entryX=0.5;entryY=0;entryDx=0;entryDy=0;entryPerimeter=0;" parent="1" source="FXJXPnf7FUrhk9hKkWCc-748" target="FXJXPnf7FUrhk9hKkWCc-750" edge="1">
          <mxGeometry relative="1" as="geometry" />
        </mxCell>
        <mxCell id="FXJXPnf7FUrhk9hKkWCc-752" style="edgeStyle=orthogonalEdgeStyle;rounded=0;orthogonalLoop=1;jettySize=auto;html=1;" parent="1" source="FXJXPnf7FUrhk9hKkWCc-753" target="FXJXPnf7FUrhk9hKkWCc-770" edge="1">
          <mxGeometry relative="1" as="geometry" />
        </mxCell>
        <mxCell id="FXJXPnf7FUrhk9hKkWCc-753" value="Output&quot;Konversi&lt;div&gt;&lt;span style=&quot;background-color: transparent; color: light-dark(rgb(0, 0, 0), rgb(255, 255, 255));&quot;&gt;Mata Uang&quot;&lt;/span&gt;&lt;/div&gt;" style="shape=parallelogram;html=1;strokeWidth=2;perimeter=parallelogramPerimeter;whiteSpace=wrap;rounded=1;arcSize=12;size=0.23;" parent="1" vertex="1">
          <mxGeometry x="-2555" y="1540" width="160" height="30" as="geometry" />
        </mxCell>
        <mxCell id="FXJXPnf7FUrhk9hKkWCc-779" style="edgeStyle=orthogonalEdgeStyle;rounded=0;orthogonalLoop=1;jettySize=auto;html=1;" parent="1" source="FXJXPnf7FUrhk9hKkWCc-755" target="FXJXPnf7FUrhk9hKkWCc-773" edge="1">
          <mxGeometry relative="1" as="geometry" />
        </mxCell>
        <mxCell id="FXJXPnf7FUrhk9hKkWCc-755" value="Output&quot;2.Dolllar&lt;div&gt;&lt;span style=&quot;background-color: transparent; color: light-dark(rgb(0, 0, 0), rgb(255, 255, 255));&quot;&gt;-&amp;gt; Rupiah&quot;&lt;/span&gt;&lt;/div&gt;" style="shape=parallelogram;html=1;strokeWidth=2;perimeter=parallelogramPerimeter;whiteSpace=wrap;rounded=1;arcSize=12;size=0.23;" parent="1" vertex="1">
          <mxGeometry x="-2560" y="1650" width="170" height="30" as="geometry" />
        </mxCell>
        <mxCell id="FXJXPnf7FUrhk9hKkWCc-756" style="edgeStyle=orthogonalEdgeStyle;rounded=0;orthogonalLoop=1;jettySize=auto;html=1;exitX=0.5;exitY=1;exitDx=0;exitDy=0;" parent="1" source="FXJXPnf7FUrhk9hKkWCc-755" target="FXJXPnf7FUrhk9hKkWCc-755" edge="1">
          <mxGeometry relative="1" as="geometry" />
        </mxCell>
        <mxCell id="FXJXPnf7FUrhk9hKkWCc-785" style="edgeStyle=orthogonalEdgeStyle;rounded=0;orthogonalLoop=1;jettySize=auto;html=1;entryX=0.5;entryY=0;entryDx=0;entryDy=0;" parent="1" source="FXJXPnf7FUrhk9hKkWCc-758" target="FXJXPnf7FUrhk9hKkWCc-760" edge="1">
          <mxGeometry relative="1" as="geometry" />
        </mxCell>
        <mxCell id="FXJXPnf7FUrhk9hKkWCc-758" value="Output&quot;Pilih jenis&lt;div&gt;konversi&quot;&lt;/div&gt;" style="shape=parallelogram;html=1;strokeWidth=2;perimeter=parallelogramPerimeter;whiteSpace=wrap;rounded=1;arcSize=12;size=0.23;" parent="1" vertex="1">
          <mxGeometry x="-2555" y="1920" width="160" height="30" as="geometry" />
        </mxCell>
        <mxCell id="FXJXPnf7FUrhk9hKkWCc-789" style="edgeStyle=orthogonalEdgeStyle;rounded=0;orthogonalLoop=1;jettySize=auto;html=1;entryX=0.5;entryY=0;entryDx=0;entryDy=0;" parent="1" source="FXJXPnf7FUrhk9hKkWCc-760" target="FXJXPnf7FUrhk9hKkWCc-762" edge="1">
          <mxGeometry relative="1" as="geometry" />
        </mxCell>
        <mxCell id="FXJXPnf7FUrhk9hKkWCc-760" value="Input con" style="shape=parallelogram;html=1;strokeWidth=2;perimeter=parallelogramPerimeter;whiteSpace=wrap;rounded=1;arcSize=12;size=0.23;" parent="1" vertex="1">
          <mxGeometry x="-2555" y="1970" width="160" height="20" as="geometry" />
        </mxCell>
        <mxCell id="FXJXPnf7FUrhk9hKkWCc-761" style="edgeStyle=orthogonalEdgeStyle;rounded=0;orthogonalLoop=1;jettySize=auto;html=1;" parent="1" source="FXJXPnf7FUrhk9hKkWCc-762" target="FXJXPnf7FUrhk9hKkWCc-764" edge="1">
          <mxGeometry relative="1" as="geometry" />
        </mxCell>
        <mxCell id="FXJXPnf7FUrhk9hKkWCc-762" value="Output&quot;Masukkan&lt;div&gt;&amp;nbsp;nila&lt;span style=&quot;background-color: transparent; color: light-dark(rgb(0, 0, 0), rgb(255, 255, 255));&quot;&gt;i&quot;&lt;/span&gt;&lt;/div&gt;" style="shape=parallelogram;html=1;strokeWidth=2;perimeter=parallelogramPerimeter;whiteSpace=wrap;rounded=1;arcSize=12;size=0.23;" parent="1" vertex="1">
          <mxGeometry x="-2555" y="2020" width="160" height="30" as="geometry" />
        </mxCell>
        <mxCell id="FXJXPnf7FUrhk9hKkWCc-1020" style="edgeStyle=orthogonalEdgeStyle;rounded=0;orthogonalLoop=1;jettySize=auto;html=1;entryX=0.5;entryY=0;entryDx=0;entryDy=0;" parent="1" source="FXJXPnf7FUrhk9hKkWCc-764" target="FXJXPnf7FUrhk9hKkWCc-1016" edge="1">
          <mxGeometry relative="1" as="geometry" />
        </mxCell>
        <mxCell id="FXJXPnf7FUrhk9hKkWCc-764" value="Input nilai" style="shape=parallelogram;html=1;strokeWidth=2;perimeter=parallelogramPerimeter;whiteSpace=wrap;rounded=1;arcSize=12;size=0.23;" parent="1" vertex="1">
          <mxGeometry x="-2545" y="2075" width="140" height="30" as="geometry" />
        </mxCell>
        <mxCell id="FXJXPnf7FUrhk9hKkWCc-765" style="edgeStyle=orthogonalEdgeStyle;rounded=0;orthogonalLoop=1;jettySize=auto;html=1;exitX=0.5;exitY=1;exitDx=0;exitDy=0;" parent="1" source="FXJXPnf7FUrhk9hKkWCc-762" target="FXJXPnf7FUrhk9hKkWCc-762" edge="1">
          <mxGeometry relative="1" as="geometry" />
        </mxCell>
        <mxCell id="FXJXPnf7FUrhk9hKkWCc-766" value="" style="verticalLabelPosition=bottom;verticalAlign=top;html=1;shape=offPageConnector;rounded=0;size=0.6153846153846154;" parent="1" vertex="1">
          <mxGeometry x="-2508.5" y="2302.5" width="65" height="65" as="geometry" />
        </mxCell>
        <mxCell id="FXJXPnf7FUrhk9hKkWCc-769" style="edgeStyle=orthogonalEdgeStyle;rounded=0;orthogonalLoop=1;jettySize=auto;html=1;" parent="1" source="FXJXPnf7FUrhk9hKkWCc-770" target="FXJXPnf7FUrhk9hKkWCc-755" edge="1">
          <mxGeometry relative="1" as="geometry" />
        </mxCell>
        <mxCell id="FXJXPnf7FUrhk9hKkWCc-770" value="Output&quot;1.Rupiah&lt;div&gt;&lt;span style=&quot;background-color: transparent; color: light-dark(rgb(0, 0, 0), rgb(255, 255, 255));&quot;&gt;-&amp;gt; Dollar&quot;&lt;/span&gt;&lt;/div&gt;" style="shape=parallelogram;html=1;strokeWidth=2;perimeter=parallelogramPerimeter;whiteSpace=wrap;rounded=1;arcSize=12;size=0.23;" parent="1" vertex="1">
          <mxGeometry x="-2555" y="1595" width="160" height="30" as="geometry" />
        </mxCell>
        <mxCell id="FXJXPnf7FUrhk9hKkWCc-780" style="edgeStyle=orthogonalEdgeStyle;rounded=0;orthogonalLoop=1;jettySize=auto;html=1;entryX=0.5;entryY=0;entryDx=0;entryDy=0;" parent="1" source="FXJXPnf7FUrhk9hKkWCc-773" target="FXJXPnf7FUrhk9hKkWCc-775" edge="1">
          <mxGeometry relative="1" as="geometry" />
        </mxCell>
        <mxCell id="FXJXPnf7FUrhk9hKkWCc-773" value="Output&quot;3.Rupiah&lt;div&gt;&lt;span style=&quot;background-color: transparent; color: light-dark(rgb(0, 0, 0), rgb(255, 255, 255));&quot;&gt;-&amp;gt; Yen&quot;&lt;/span&gt;&lt;/div&gt;" style="shape=parallelogram;html=1;strokeWidth=2;perimeter=parallelogramPerimeter;whiteSpace=wrap;rounded=1;arcSize=12;size=0.23;" parent="1" vertex="1">
          <mxGeometry x="-2555" y="1700" width="160" height="30" as="geometry" />
        </mxCell>
        <mxCell id="FXJXPnf7FUrhk9hKkWCc-781" style="edgeStyle=orthogonalEdgeStyle;rounded=0;orthogonalLoop=1;jettySize=auto;html=1;" parent="1" source="FXJXPnf7FUrhk9hKkWCc-775" target="FXJXPnf7FUrhk9hKkWCc-776" edge="1">
          <mxGeometry relative="1" as="geometry" />
        </mxCell>
        <mxCell id="FXJXPnf7FUrhk9hKkWCc-775" value="Output&quot;4.Yen&lt;div&gt;&lt;span style=&quot;background-color: transparent; color: light-dark(rgb(0, 0, 0), rgb(255, 255, 255));&quot;&gt;-&amp;gt; Rupiah&quot;&lt;/span&gt;&lt;/div&gt;" style="shape=parallelogram;html=1;strokeWidth=2;perimeter=parallelogramPerimeter;whiteSpace=wrap;rounded=1;arcSize=12;size=0.23;" parent="1" vertex="1">
          <mxGeometry x="-2560" y="1750" width="170" height="30" as="geometry" />
        </mxCell>
        <mxCell id="FXJXPnf7FUrhk9hKkWCc-782" style="edgeStyle=orthogonalEdgeStyle;rounded=0;orthogonalLoop=1;jettySize=auto;html=1;" parent="1" source="FXJXPnf7FUrhk9hKkWCc-776" target="FXJXPnf7FUrhk9hKkWCc-778" edge="1">
          <mxGeometry relative="1" as="geometry" />
        </mxCell>
        <mxCell id="FXJXPnf7FUrhk9hKkWCc-776" value="Output&quot;5.Rupiah&lt;div&gt;&lt;span style=&quot;background-color: transparent; color: light-dark(rgb(0, 0, 0), rgb(255, 255, 255));&quot;&gt;-&amp;gt; Won&quot;&lt;/span&gt;&lt;/div&gt;" style="shape=parallelogram;html=1;strokeWidth=2;perimeter=parallelogramPerimeter;whiteSpace=wrap;rounded=1;arcSize=12;size=0.23;" parent="1" vertex="1">
          <mxGeometry x="-2555" y="1805" width="160" height="30" as="geometry" />
        </mxCell>
        <mxCell id="FXJXPnf7FUrhk9hKkWCc-783" style="edgeStyle=orthogonalEdgeStyle;rounded=0;orthogonalLoop=1;jettySize=auto;html=1;entryX=0.5;entryY=0;entryDx=0;entryDy=0;" parent="1" source="FXJXPnf7FUrhk9hKkWCc-778" target="FXJXPnf7FUrhk9hKkWCc-758" edge="1">
          <mxGeometry relative="1" as="geometry" />
        </mxCell>
        <mxCell id="FXJXPnf7FUrhk9hKkWCc-778" value="Output&quot;6.Won&lt;div&gt;&lt;span style=&quot;background-color: transparent; color: light-dark(rgb(0, 0, 0), rgb(255, 255, 255));&quot;&gt;-&amp;gt; Rupiah&quot;&lt;/span&gt;&lt;/div&gt;" style="shape=parallelogram;html=1;strokeWidth=2;perimeter=parallelogramPerimeter;whiteSpace=wrap;rounded=1;arcSize=12;size=0.23;" parent="1" vertex="1">
          <mxGeometry x="-2560" y="1857.5" width="170" height="30" as="geometry" />
        </mxCell>
        <mxCell id="FXJXPnf7FUrhk9hKkWCc-962" style="edgeStyle=orthogonalEdgeStyle;rounded=0;orthogonalLoop=1;jettySize=auto;html=1;entryX=0.5;entryY=0;entryDx=0;entryDy=0;" parent="1" source="FXJXPnf7FUrhk9hKkWCc-963" target="FXJXPnf7FUrhk9hKkWCc-967" edge="1">
          <mxGeometry relative="1" as="geometry" />
        </mxCell>
        <mxCell id="FXJXPnf7FUrhk9hKkWCc-963" value="con == 1" style="strokeWidth=2;html=1;shape=mxgraph.flowchart.decision;whiteSpace=wrap;" parent="1" vertex="1">
          <mxGeometry x="-2493.5" y="2580" width="70" height="80" as="geometry" />
        </mxCell>
        <mxCell id="FXJXPnf7FUrhk9hKkWCc-964" value="" style="verticalLabelPosition=bottom;verticalAlign=top;html=1;shape=offPageConnector;rounded=0;size=0.6153846153846154;" parent="1" vertex="1">
          <mxGeometry x="-2491" y="2460" width="65" height="65" as="geometry" />
        </mxCell>
        <mxCell id="FXJXPnf7FUrhk9hKkWCc-965" style="edgeStyle=orthogonalEdgeStyle;rounded=0;orthogonalLoop=1;jettySize=auto;html=1;entryX=0.5;entryY=0;entryDx=0;entryDy=0;entryPerimeter=0;" parent="1" source="FXJXPnf7FUrhk9hKkWCc-964" target="FXJXPnf7FUrhk9hKkWCc-963" edge="1">
          <mxGeometry relative="1" as="geometry" />
        </mxCell>
        <mxCell id="FXJXPnf7FUrhk9hKkWCc-966" style="edgeStyle=orthogonalEdgeStyle;rounded=0;orthogonalLoop=1;jettySize=auto;html=1;" parent="1" source="FXJXPnf7FUrhk9hKkWCc-967" target="FXJXPnf7FUrhk9hKkWCc-968" edge="1">
          <mxGeometry relative="1" as="geometry" />
        </mxCell>
        <mxCell id="FXJXPnf7FUrhk9hKkWCc-967" value="hasil = nilai / kursusd" style="rounded=1;whiteSpace=wrap;html=1;absoluteArcSize=1;arcSize=14;strokeWidth=2;" parent="1" vertex="1">
          <mxGeometry x="-2508.5" y="2710" width="100" height="40" as="geometry" />
        </mxCell>
        <mxCell id="FXJXPnf7FUrhk9hKkWCc-968" value="Output&lt;div&gt;&quot;Hasil mata&amp;nbsp;&lt;/div&gt;&lt;div&gt;&lt;span style=&quot;background-color: transparent; color: light-dark(rgb(0, 0, 0), rgb(255, 255, 255));&quot;&gt;uangnya $:&lt;/span&gt;&lt;/div&gt;&lt;div&gt;&lt;span style=&quot;background-color: transparent; color: light-dark(rgb(0, 0, 0), rgb(255, 255, 255));&quot;&gt;&quot;,hasil&lt;/span&gt;&lt;/div&gt;" style="shape=parallelogram;html=1;strokeWidth=2;perimeter=parallelogramPerimeter;whiteSpace=wrap;rounded=1;arcSize=12;size=0.23;" parent="1" vertex="1">
          <mxGeometry x="-2525.37" y="2810" width="133.75" height="60" as="geometry" />
        </mxCell>
        <mxCell id="FXJXPnf7FUrhk9hKkWCc-969" style="edgeStyle=orthogonalEdgeStyle;rounded=0;orthogonalLoop=1;jettySize=auto;html=1;" parent="1" source="FXJXPnf7FUrhk9hKkWCc-970" target="FXJXPnf7FUrhk9hKkWCc-976" edge="1">
          <mxGeometry relative="1" as="geometry" />
        </mxCell>
        <mxCell id="FXJXPnf7FUrhk9hKkWCc-970" value="con == 2" style="strokeWidth=2;html=1;shape=mxgraph.flowchart.decision;whiteSpace=wrap;" parent="1" vertex="1">
          <mxGeometry x="-2631" y="2580" width="70" height="80" as="geometry" />
        </mxCell>
        <mxCell id="FXJXPnf7FUrhk9hKkWCc-971" style="edgeStyle=orthogonalEdgeStyle;rounded=0;orthogonalLoop=1;jettySize=auto;html=1;entryX=1;entryY=0.5;entryDx=0;entryDy=0;entryPerimeter=0;" parent="1" source="FXJXPnf7FUrhk9hKkWCc-963" target="FXJXPnf7FUrhk9hKkWCc-970" edge="1">
          <mxGeometry relative="1" as="geometry" />
        </mxCell>
        <mxCell id="FXJXPnf7FUrhk9hKkWCc-972" style="edgeStyle=orthogonalEdgeStyle;rounded=0;orthogonalLoop=1;jettySize=auto;html=1;" parent="1" source="FXJXPnf7FUrhk9hKkWCc-973" target="FXJXPnf7FUrhk9hKkWCc-978" edge="1">
          <mxGeometry relative="1" as="geometry" />
        </mxCell>
        <mxCell id="FXJXPnf7FUrhk9hKkWCc-973" value="con == 3" style="strokeWidth=2;html=1;shape=mxgraph.flowchart.decision;whiteSpace=wrap;" parent="1" vertex="1">
          <mxGeometry x="-2781" y="2580" width="70" height="80" as="geometry" />
        </mxCell>
        <mxCell id="FXJXPnf7FUrhk9hKkWCc-974" style="edgeStyle=orthogonalEdgeStyle;rounded=0;orthogonalLoop=1;jettySize=auto;html=1;entryX=1;entryY=0.5;entryDx=0;entryDy=0;entryPerimeter=0;" parent="1" source="FXJXPnf7FUrhk9hKkWCc-970" target="FXJXPnf7FUrhk9hKkWCc-973" edge="1">
          <mxGeometry relative="1" as="geometry" />
        </mxCell>
        <mxCell id="FXJXPnf7FUrhk9hKkWCc-975" style="edgeStyle=orthogonalEdgeStyle;rounded=0;orthogonalLoop=1;jettySize=auto;html=1;" parent="1" source="FXJXPnf7FUrhk9hKkWCc-976" target="FXJXPnf7FUrhk9hKkWCc-979" edge="1">
          <mxGeometry relative="1" as="geometry" />
        </mxCell>
        <mxCell id="FXJXPnf7FUrhk9hKkWCc-976" value="hasil = nilai * kursusd" style="rounded=1;whiteSpace=wrap;html=1;absoluteArcSize=1;arcSize=14;strokeWidth=2;" parent="1" vertex="1">
          <mxGeometry x="-2646" y="2710" width="100" height="40" as="geometry" />
        </mxCell>
        <mxCell id="FXJXPnf7FUrhk9hKkWCc-977" style="edgeStyle=orthogonalEdgeStyle;rounded=0;orthogonalLoop=1;jettySize=auto;html=1;" parent="1" source="FXJXPnf7FUrhk9hKkWCc-978" target="FXJXPnf7FUrhk9hKkWCc-980" edge="1">
          <mxGeometry relative="1" as="geometry" />
        </mxCell>
        <mxCell id="FXJXPnf7FUrhk9hKkWCc-978" value="hasil = nilai / kursyen" style="rounded=1;whiteSpace=wrap;html=1;absoluteArcSize=1;arcSize=14;strokeWidth=2;" parent="1" vertex="1">
          <mxGeometry x="-2796" y="2710" width="100" height="40" as="geometry" />
        </mxCell>
        <mxCell id="FXJXPnf7FUrhk9hKkWCc-979" value="Output&lt;div&gt;&quot;Hasil maya&lt;/div&gt;&lt;div&gt;&lt;span style=&quot;background-color: transparent; color: light-dark(rgb(0, 0, 0), rgb(255, 255, 255));&quot;&gt;uangnya Rp:&quot;&lt;/span&gt;&lt;/div&gt;&lt;div&gt;&lt;span style=&quot;background-color: transparent; color: light-dark(rgb(0, 0, 0), rgb(255, 255, 255));&quot;&gt;,hasil&lt;/span&gt;&lt;/div&gt;" style="shape=parallelogram;html=1;strokeWidth=2;perimeter=parallelogramPerimeter;whiteSpace=wrap;rounded=1;arcSize=12;size=0.23;" parent="1" vertex="1">
          <mxGeometry x="-2655.99" y="2810" width="119.99" height="60" as="geometry" />
        </mxCell>
        <mxCell id="FXJXPnf7FUrhk9hKkWCc-980" value="Output&lt;div&gt;&quot;Hasil mata&lt;/div&gt;&lt;div&gt;&lt;span style=&quot;background-color: transparent; color: light-dark(rgb(0, 0, 0), rgb(255, 255, 255));&quot;&gt;uangnya&amp;nbsp;&lt;/span&gt;&lt;span style=&quot;background-color: transparent; color: light-dark(rgb(0, 0, 0), rgb(255, 255, 255));&quot;&gt;¥:&lt;/span&gt;&lt;span style=&quot;background-color: transparent; color: light-dark(rgb(0, 0, 0), rgb(255, 255, 255));&quot;&gt;&amp;nbsp;&quot;&lt;/span&gt;&lt;/div&gt;&lt;div&gt;&lt;span style=&quot;background-color: transparent; color: light-dark(rgb(0, 0, 0), rgb(255, 255, 255));&quot;&gt;,hasil&lt;/span&gt;&lt;/div&gt;" style="shape=parallelogram;html=1;strokeWidth=2;perimeter=parallelogramPerimeter;whiteSpace=wrap;rounded=1;arcSize=12;size=0.23;" parent="1" vertex="1">
          <mxGeometry x="-2806.93" y="2810" width="121.87" height="60" as="geometry" />
        </mxCell>
        <mxCell id="FXJXPnf7FUrhk9hKkWCc-981" value="yes" style="text;html=1;align=center;verticalAlign=middle;resizable=0;points=[];autosize=1;strokeColor=none;fillColor=none;" parent="1" vertex="1">
          <mxGeometry x="-2791" y="2660" width="40" height="30" as="geometry" />
        </mxCell>
        <mxCell id="FXJXPnf7FUrhk9hKkWCc-982" value="&lt;span style=&quot;color: rgb(0, 0, 0); font-family: Helvetica; font-size: 12px; font-style: normal; font-variant-ligatures: normal; font-variant-caps: normal; font-weight: 400; letter-spacing: normal; orphans: 2; text-align: center; text-indent: 0px; text-transform: none; widows: 2; word-spacing: 0px; -webkit-text-stroke-width: 0px; white-space: nowrap; background-color: rgb(236, 236, 236); text-decoration-thickness: initial; text-decoration-style: initial; text-decoration-color: initial; display: inline !important; float: none;&quot;&gt;yes&lt;/span&gt;" style="text;whiteSpace=wrap;html=1;" parent="1" vertex="1">
          <mxGeometry x="-2641" y="2670" width="50" height="40" as="geometry" />
        </mxCell>
        <mxCell id="FXJXPnf7FUrhk9hKkWCc-983" value="&lt;span style=&quot;color: rgb(0, 0, 0); font-family: Helvetica; font-size: 12px; font-style: normal; font-variant-ligatures: normal; font-variant-caps: normal; font-weight: 400; letter-spacing: normal; orphans: 2; text-align: center; text-indent: 0px; text-transform: none; widows: 2; word-spacing: 0px; -webkit-text-stroke-width: 0px; white-space: nowrap; background-color: rgb(236, 236, 236); text-decoration-thickness: initial; text-decoration-style: initial; text-decoration-color: initial; display: inline !important; float: none;&quot;&gt;yes&lt;/span&gt;" style="text;whiteSpace=wrap;html=1;" parent="1" vertex="1">
          <mxGeometry x="-2496" y="2670" width="50" height="40" as="geometry" />
        </mxCell>
        <mxCell id="FXJXPnf7FUrhk9hKkWCc-984" value="no" style="text;html=1;align=center;verticalAlign=middle;resizable=0;points=[];autosize=1;strokeColor=none;fillColor=none;" parent="1" vertex="1">
          <mxGeometry x="-2681" y="2590" width="40" height="30" as="geometry" />
        </mxCell>
        <mxCell id="FXJXPnf7FUrhk9hKkWCc-985" value="no" style="text;html=1;align=center;verticalAlign=middle;resizable=0;points=[];autosize=1;strokeColor=none;fillColor=none;" parent="1" vertex="1">
          <mxGeometry x="-2548.5" y="2590" width="40" height="30" as="geometry" />
        </mxCell>
        <mxCell id="FXJXPnf7FUrhk9hKkWCc-986" value="Output&quot;Pilihan&amp;nbsp;&lt;div&gt;&lt;span style=&quot;background-color: transparent; color: light-dark(rgb(0, 0, 0), rgb(255, 255, 255));&quot;&gt;konversi massa&lt;/span&gt;&lt;/div&gt;&lt;div&gt;&lt;span style=&quot;background-color: transparent; color: light-dark(rgb(0, 0, 0), rgb(255, 255, 255));&quot;&gt;tidak ada!&quot;l&lt;/span&gt;&lt;/div&gt;" style="shape=parallelogram;html=1;strokeWidth=2;perimeter=parallelogramPerimeter;whiteSpace=wrap;rounded=1;arcSize=12;size=0.23;" parent="1" vertex="1">
          <mxGeometry x="-3323.12" y="2595" width="133.75" height="50" as="geometry" />
        </mxCell>
        <mxCell id="FXJXPnf7FUrhk9hKkWCc-987" value="no" style="text;html=1;align=center;verticalAlign=middle;resizable=0;points=[];autosize=1;strokeColor=none;fillColor=none;" parent="1" vertex="1">
          <mxGeometry x="-2821" y="2590" width="40" height="30" as="geometry" />
        </mxCell>
        <mxCell id="FXJXPnf7FUrhk9hKkWCc-988" value="End" style="strokeWidth=2;html=1;shape=mxgraph.flowchart.start_1;whiteSpace=wrap;" parent="1" vertex="1">
          <mxGeometry x="-3306.24" y="2729" width="100" height="42" as="geometry" />
        </mxCell>
        <mxCell id="FXJXPnf7FUrhk9hKkWCc-989" style="edgeStyle=orthogonalEdgeStyle;rounded=0;orthogonalLoop=1;jettySize=auto;html=1;entryX=0.5;entryY=0;entryDx=0;entryDy=0;entryPerimeter=0;" parent="1" source="FXJXPnf7FUrhk9hKkWCc-986" target="FXJXPnf7FUrhk9hKkWCc-988" edge="1">
          <mxGeometry relative="1" as="geometry" />
        </mxCell>
        <mxCell id="FXJXPnf7FUrhk9hKkWCc-990" style="edgeStyle=orthogonalEdgeStyle;rounded=0;orthogonalLoop=1;jettySize=auto;html=1;" parent="1" source="FXJXPnf7FUrhk9hKkWCc-992" target="FXJXPnf7FUrhk9hKkWCc-998" edge="1">
          <mxGeometry relative="1" as="geometry" />
        </mxCell>
        <mxCell id="FXJXPnf7FUrhk9hKkWCc-991" style="edgeStyle=orthogonalEdgeStyle;rounded=0;orthogonalLoop=1;jettySize=auto;html=1;" parent="1" source="FXJXPnf7FUrhk9hKkWCc-992" target="FXJXPnf7FUrhk9hKkWCc-995" edge="1">
          <mxGeometry relative="1" as="geometry" />
        </mxCell>
        <mxCell id="FXJXPnf7FUrhk9hKkWCc-992" value="con == 4" style="strokeWidth=2;html=1;shape=mxgraph.flowchart.decision;whiteSpace=wrap;" parent="1" vertex="1">
          <mxGeometry x="-2896" y="2580" width="70" height="80" as="geometry" />
        </mxCell>
        <mxCell id="FXJXPnf7FUrhk9hKkWCc-993" style="edgeStyle=orthogonalEdgeStyle;rounded=0;orthogonalLoop=1;jettySize=auto;html=1;entryX=1;entryY=0.5;entryDx=0;entryDy=0;entryPerimeter=0;" parent="1" source="FXJXPnf7FUrhk9hKkWCc-973" target="FXJXPnf7FUrhk9hKkWCc-992" edge="1">
          <mxGeometry relative="1" as="geometry" />
        </mxCell>
        <mxCell id="FXJXPnf7FUrhk9hKkWCc-994" style="edgeStyle=orthogonalEdgeStyle;rounded=0;orthogonalLoop=1;jettySize=auto;html=1;" parent="1" source="FXJXPnf7FUrhk9hKkWCc-995" target="FXJXPnf7FUrhk9hKkWCc-1003" edge="1">
          <mxGeometry relative="1" as="geometry" />
        </mxCell>
        <mxCell id="FXJXPnf7FUrhk9hKkWCc-995" value="hasil = nilai * kursyen" style="rounded=1;whiteSpace=wrap;html=1;absoluteArcSize=1;arcSize=14;strokeWidth=2;" parent="1" vertex="1">
          <mxGeometry x="-2911" y="2710" width="100" height="40" as="geometry" />
        </mxCell>
        <mxCell id="FXJXPnf7FUrhk9hKkWCc-997" style="edgeStyle=orthogonalEdgeStyle;rounded=0;orthogonalLoop=1;jettySize=auto;html=1;" parent="1" source="FXJXPnf7FUrhk9hKkWCc-998" target="FXJXPnf7FUrhk9hKkWCc-1002" edge="1">
          <mxGeometry relative="1" as="geometry" />
        </mxCell>
        <mxCell id="FXJXPnf7FUrhk9hKkWCc-998" value="con == 5" style="strokeWidth=2;html=1;shape=mxgraph.flowchart.decision;whiteSpace=wrap;" parent="1" vertex="1">
          <mxGeometry x="-3021" y="2580" width="70" height="80" as="geometry" />
        </mxCell>
        <mxCell id="FXJXPnf7FUrhk9hKkWCc-999" value="no" style="text;html=1;align=center;verticalAlign=middle;resizable=0;points=[];autosize=1;strokeColor=none;fillColor=none;" parent="1" vertex="1">
          <mxGeometry x="-2936" y="2590" width="40" height="30" as="geometry" />
        </mxCell>
        <mxCell id="FXJXPnf7FUrhk9hKkWCc-1000" value="no" style="text;html=1;align=center;verticalAlign=middle;resizable=0;points=[];autosize=1;strokeColor=none;fillColor=none;" parent="1" vertex="1">
          <mxGeometry x="-3070" y="2590" width="40" height="30" as="geometry" />
        </mxCell>
        <mxCell id="FXJXPnf7FUrhk9hKkWCc-1001" style="edgeStyle=orthogonalEdgeStyle;rounded=0;orthogonalLoop=1;jettySize=auto;html=1;entryX=0.5;entryY=0;entryDx=0;entryDy=0;" parent="1" source="FXJXPnf7FUrhk9hKkWCc-1002" target="FXJXPnf7FUrhk9hKkWCc-1004" edge="1">
          <mxGeometry relative="1" as="geometry" />
        </mxCell>
        <mxCell id="FXJXPnf7FUrhk9hKkWCc-1002" value="hasil = nilai / kurswon" style="rounded=1;whiteSpace=wrap;html=1;absoluteArcSize=1;arcSize=14;strokeWidth=2;" parent="1" vertex="1">
          <mxGeometry x="-3036" y="2710" width="100" height="40" as="geometry" />
        </mxCell>
        <mxCell id="FXJXPnf7FUrhk9hKkWCc-1003" value="Output&lt;div&gt;&quot;Hasil mata&lt;/div&gt;&lt;div&gt;uangnya Rp:&quot;&lt;/div&gt;&lt;div&gt;&lt;span style=&quot;background-color: transparent; color: light-dark(rgb(0, 0, 0), rgb(255, 255, 255));&quot;&gt;,hasil&lt;/span&gt;&lt;/div&gt;" style="shape=parallelogram;html=1;strokeWidth=2;perimeter=parallelogramPerimeter;whiteSpace=wrap;rounded=1;arcSize=12;size=0.23;" parent="1" vertex="1">
          <mxGeometry x="-2921.94" y="2810" width="121.87" height="60" as="geometry" />
        </mxCell>
        <mxCell id="FXJXPnf7FUrhk9hKkWCc-1004" value="Output&lt;div&gt;&quot;Hasil mata&lt;/div&gt;&lt;div&gt;uangnya&amp;nbsp;₩:&lt;br&gt;&lt;div&gt;&lt;span style=&quot;background-color: transparent; color: light-dark(rgb(0, 0, 0), rgb(255, 255, 255));&quot;&gt;&quot;,hasil&lt;/span&gt;&lt;/div&gt;&lt;/div&gt;" style="shape=parallelogram;html=1;strokeWidth=2;perimeter=parallelogramPerimeter;whiteSpace=wrap;rounded=1;arcSize=12;size=0.23;" parent="1" vertex="1">
          <mxGeometry x="-3046.93" y="2810" width="121.87" height="60" as="geometry" />
        </mxCell>
        <mxCell id="FXJXPnf7FUrhk9hKkWCc-1005" value="yes" style="text;html=1;align=center;verticalAlign=middle;resizable=0;points=[];autosize=1;strokeColor=none;fillColor=none;" parent="1" vertex="1">
          <mxGeometry x="180" y="1378" width="40" height="30" as="geometry" />
        </mxCell>
        <mxCell id="FXJXPnf7FUrhk9hKkWCc-1006" value="no" style="text;html=1;align=center;verticalAlign=middle;resizable=0;points=[];autosize=1;strokeColor=none;fillColor=none;" parent="1" vertex="1">
          <mxGeometry x="30" y="1378" width="40" height="30" as="geometry" />
        </mxCell>
        <mxCell id="FXJXPnf7FUrhk9hKkWCc-1007" value="yes" style="text;html=1;align=center;verticalAlign=middle;resizable=0;points=[];autosize=1;strokeColor=none;fillColor=none;" parent="1" vertex="1">
          <mxGeometry x="-302.5" y="1480" width="40" height="30" as="geometry" />
        </mxCell>
        <mxCell id="FXJXPnf7FUrhk9hKkWCc-1008" value="yes" style="text;html=1;align=center;verticalAlign=middle;resizable=0;points=[];autosize=1;strokeColor=none;fillColor=none;" parent="1" vertex="1">
          <mxGeometry x="-1281.88" y="1460" width="40" height="30" as="geometry" />
        </mxCell>
        <mxCell id="FXJXPnf7FUrhk9hKkWCc-1009" value="yes" style="text;html=1;align=center;verticalAlign=middle;resizable=0;points=[];autosize=1;strokeColor=none;fillColor=none;" parent="1" vertex="1">
          <mxGeometry x="-1975" y="1460" width="40" height="30" as="geometry" />
        </mxCell>
        <mxCell id="FXJXPnf7FUrhk9hKkWCc-1010" value="yes" style="text;html=1;align=center;verticalAlign=middle;resizable=0;points=[];autosize=1;strokeColor=none;fillColor=none;" parent="1" vertex="1">
          <mxGeometry x="-2536" y="1460" width="40" height="30" as="geometry" />
        </mxCell>
        <mxCell id="FXJXPnf7FUrhk9hKkWCc-1011" value="no" style="text;html=1;align=center;verticalAlign=middle;resizable=0;points=[];autosize=1;strokeColor=none;fillColor=none;" parent="1" vertex="1">
          <mxGeometry x="-449.99" y="1480" width="40" height="30" as="geometry" />
        </mxCell>
        <mxCell id="FXJXPnf7FUrhk9hKkWCc-1012" value="no" style="text;html=1;align=center;verticalAlign=middle;resizable=0;points=[];autosize=1;strokeColor=none;fillColor=none;" parent="1" vertex="1">
          <mxGeometry x="-1410" y="1460" width="40" height="30" as="geometry" />
        </mxCell>
        <mxCell id="FXJXPnf7FUrhk9hKkWCc-1013" value="no" style="text;html=1;align=center;verticalAlign=middle;resizable=0;points=[];autosize=1;strokeColor=none;fillColor=none;" parent="1" vertex="1">
          <mxGeometry x="-2115" y="1460" width="40" height="30" as="geometry" />
        </mxCell>
        <mxCell id="t3jzoyrrEMCMeRs9mJuR-2" style="edgeStyle=orthogonalEdgeStyle;rounded=0;orthogonalLoop=1;jettySize=auto;html=1;" parent="1" source="FXJXPnf7FUrhk9hKkWCc-1014" target="t3jzoyrrEMCMeRs9mJuR-1" edge="1">
          <mxGeometry relative="1" as="geometry" />
        </mxCell>
        <mxCell id="FXJXPnf7FUrhk9hKkWCc-1014" value="Output&quot;Pilihan&amp;nbsp;&lt;div&gt;&lt;span style=&quot;background-color: transparent; color: light-dark(rgb(0, 0, 0), rgb(255, 255, 255));&quot;&gt;kalkulator&lt;/span&gt;&lt;/div&gt;&lt;div&gt;&lt;span style=&quot;background-color: transparent; color: light-dark(rgb(0, 0, 0), rgb(255, 255, 255));&quot;&gt;&amp;nbsp;t&lt;/span&gt;&lt;span style=&quot;background-color: transparent; color: light-dark(rgb(0, 0, 0), rgb(255, 255, 255));&quot;&gt;idak ada&lt;/span&gt;&lt;span style=&quot;background-color: transparent; color: light-dark(rgb(0, 0, 0), rgb(255, 255, 255));&quot;&gt;!&quot;l&lt;/span&gt;&lt;/div&gt;" style="shape=parallelogram;html=1;strokeWidth=2;perimeter=parallelogramPerimeter;whiteSpace=wrap;rounded=1;arcSize=12;size=0.23;" parent="1" vertex="1">
          <mxGeometry x="-2779.75" y="1570" width="133.75" height="50" as="geometry" />
        </mxCell>
        <mxCell id="FXJXPnf7FUrhk9hKkWCc-1021" style="edgeStyle=orthogonalEdgeStyle;rounded=0;orthogonalLoop=1;jettySize=auto;html=1;entryX=0.5;entryY=0;entryDx=0;entryDy=0;" parent="1" source="FXJXPnf7FUrhk9hKkWCc-1016" target="FXJXPnf7FUrhk9hKkWCc-1017" edge="1">
          <mxGeometry relative="1" as="geometry" />
        </mxCell>
        <mxCell id="FXJXPnf7FUrhk9hKkWCc-1016" value="kursdollar = 16750.0" style="rounded=1;whiteSpace=wrap;html=1;absoluteArcSize=1;arcSize=14;strokeWidth=2;" parent="1" vertex="1">
          <mxGeometry x="-2525" y="2130" width="100" height="30" as="geometry" />
        </mxCell>
        <mxCell id="FXJXPnf7FUrhk9hKkWCc-1022" value="" style="edgeStyle=orthogonalEdgeStyle;rounded=0;orthogonalLoop=1;jettySize=auto;html=1;" parent="1" source="FXJXPnf7FUrhk9hKkWCc-1017" target="FXJXPnf7FUrhk9hKkWCc-1018" edge="1">
          <mxGeometry relative="1" as="geometry" />
        </mxCell>
        <mxCell id="FXJXPnf7FUrhk9hKkWCc-1017" value="kursyen = 112.26" style="rounded=1;whiteSpace=wrap;html=1;absoluteArcSize=1;arcSize=14;strokeWidth=2;" parent="1" vertex="1">
          <mxGeometry x="-2525.37" y="2185" width="100" height="30" as="geometry" />
        </mxCell>
        <mxCell id="FXJXPnf7FUrhk9hKkWCc-1023" value="" style="edgeStyle=orthogonalEdgeStyle;rounded=0;orthogonalLoop=1;jettySize=auto;html=1;" parent="1" source="FXJXPnf7FUrhk9hKkWCc-1018" target="FXJXPnf7FUrhk9hKkWCc-766" edge="1">
          <mxGeometry relative="1" as="geometry" />
        </mxCell>
        <mxCell id="FXJXPnf7FUrhk9hKkWCc-1018" value="kurswon = 11.88" style="rounded=1;whiteSpace=wrap;html=1;absoluteArcSize=1;arcSize=14;strokeWidth=2;" parent="1" vertex="1">
          <mxGeometry x="-2526" y="2242" width="100" height="30" as="geometry" />
        </mxCell>
        <mxCell id="FXJXPnf7FUrhk9hKkWCc-1028" style="edgeStyle=orthogonalEdgeStyle;rounded=0;orthogonalLoop=1;jettySize=auto;html=1;entryX=0.5;entryY=0;entryDx=0;entryDy=0;" parent="1" source="FXJXPnf7FUrhk9hKkWCc-1024" target="FXJXPnf7FUrhk9hKkWCc-1027" edge="1">
          <mxGeometry relative="1" as="geometry" />
        </mxCell>
        <mxCell id="FXJXPnf7FUrhk9hKkWCc-1031" style="edgeStyle=orthogonalEdgeStyle;rounded=0;orthogonalLoop=1;jettySize=auto;html=1;entryX=1;entryY=0.5;entryDx=0;entryDy=0;" parent="1" source="FXJXPnf7FUrhk9hKkWCc-1024" target="FXJXPnf7FUrhk9hKkWCc-986" edge="1">
          <mxGeometry relative="1" as="geometry" />
        </mxCell>
        <mxCell id="FXJXPnf7FUrhk9hKkWCc-1024" value="con == 6" style="strokeWidth=2;html=1;shape=mxgraph.flowchart.decision;whiteSpace=wrap;" parent="1" vertex="1">
          <mxGeometry x="-3160" y="2580" width="70" height="80" as="geometry" />
        </mxCell>
        <mxCell id="FXJXPnf7FUrhk9hKkWCc-1026" style="edgeStyle=orthogonalEdgeStyle;rounded=0;orthogonalLoop=1;jettySize=auto;html=1;entryX=1;entryY=0.5;entryDx=0;entryDy=0;entryPerimeter=0;" parent="1" source="FXJXPnf7FUrhk9hKkWCc-998" target="FXJXPnf7FUrhk9hKkWCc-1024" edge="1">
          <mxGeometry relative="1" as="geometry" />
        </mxCell>
        <mxCell id="FXJXPnf7FUrhk9hKkWCc-1030" style="edgeStyle=orthogonalEdgeStyle;rounded=0;orthogonalLoop=1;jettySize=auto;html=1;entryX=0.5;entryY=0;entryDx=0;entryDy=0;" parent="1" source="FXJXPnf7FUrhk9hKkWCc-1027" target="FXJXPnf7FUrhk9hKkWCc-1029" edge="1">
          <mxGeometry relative="1" as="geometry" />
        </mxCell>
        <mxCell id="FXJXPnf7FUrhk9hKkWCc-1027" value="hasil = nilai * kurswon" style="rounded=1;whiteSpace=wrap;html=1;absoluteArcSize=1;arcSize=14;strokeWidth=2;" parent="1" vertex="1">
          <mxGeometry x="-3175" y="2710" width="100" height="40" as="geometry" />
        </mxCell>
        <mxCell id="FXJXPnf7FUrhk9hKkWCc-1029" value="Output&lt;div&gt;&quot;Hasil mata&lt;/div&gt;&lt;div&gt;uangnya Rp:&quot;&lt;/div&gt;&lt;div&gt;&lt;span style=&quot;background-color: transparent; color: light-dark(rgb(0, 0, 0), rgb(255, 255, 255));&quot;&gt;,hasil&lt;/span&gt;&lt;/div&gt;" style="shape=parallelogram;html=1;strokeWidth=2;perimeter=parallelogramPerimeter;whiteSpace=wrap;rounded=1;arcSize=12;size=0.23;" parent="1" vertex="1">
          <mxGeometry x="-3185.93" y="2810" width="121.87" height="60" as="geometry" />
        </mxCell>
        <mxCell id="FXJXPnf7FUrhk9hKkWCc-1032" value="no" style="text;html=1;align=center;verticalAlign=middle;resizable=0;points=[];autosize=1;strokeColor=none;fillColor=none;" parent="1" vertex="1">
          <mxGeometry x="-3189.37" y="2590" width="40" height="30" as="geometry" />
        </mxCell>
        <mxCell id="FXJXPnf7FUrhk9hKkWCc-1033" value="yes" style="text;html=1;align=center;verticalAlign=middle;resizable=0;points=[];autosize=1;strokeColor=none;fillColor=none;" parent="1" vertex="1">
          <mxGeometry x="-2900" y="2660" width="40" height="30" as="geometry" />
        </mxCell>
        <mxCell id="FXJXPnf7FUrhk9hKkWCc-1034" value="yes" style="text;html=1;align=center;verticalAlign=middle;resizable=0;points=[];autosize=1;strokeColor=none;fillColor=none;" parent="1" vertex="1">
          <mxGeometry x="-3036" y="2660" width="40" height="30" as="geometry" />
        </mxCell>
        <mxCell id="FXJXPnf7FUrhk9hKkWCc-1035" value="yes" style="text;html=1;align=center;verticalAlign=middle;resizable=0;points=[];autosize=1;strokeColor=none;fillColor=none;" parent="1" vertex="1">
          <mxGeometry x="-3170" y="2660" width="40" height="30" as="geometry" />
        </mxCell>
        <mxCell id="t3jzoyrrEMCMeRs9mJuR-1" value="End" style="ellipse;whiteSpace=wrap;html=1;" parent="1" vertex="1">
          <mxGeometry x="-2757.87" y="1670" width="90" height="60" as="geometry" />
        </mxCell>
        <mxCell id="81KpfvpVlyQhOycNybto-1" value="no" style="text;html=1;align=center;verticalAlign=middle;resizable=0;points=[];autosize=1;strokeColor=none;fillColor=none;" parent="1" vertex="1">
          <mxGeometry x="-2690" y="1458" width="40" height="30" as="geometry" />
        </mxCell>
        <mxCell id="wYz5p7Y-mSLA2BZfrK7W-5" style="edgeStyle=orthogonalEdgeStyle;rounded=0;orthogonalLoop=1;jettySize=auto;html=1;exitX=0.5;exitY=1;exitDx=0;exitDy=0;entryX=0.5;entryY=1;entryDx=0;entryDy=0;entryPerimeter=0;" parent="1" source="FXJXPnf7FUrhk9hKkWCc-1029" target="FXJXPnf7FUrhk9hKkWCc-988" edge="1">
          <mxGeometry relative="1" as="geometry" />
        </mxCell>
        <mxCell id="wYz5p7Y-mSLA2BZfrK7W-7" style="edgeStyle=orthogonalEdgeStyle;rounded=0;orthogonalLoop=1;jettySize=auto;html=1;exitX=0.5;exitY=1;exitDx=0;exitDy=0;entryX=0.5;entryY=1;entryDx=0;entryDy=0;entryPerimeter=0;" parent="1" source="FXJXPnf7FUrhk9hKkWCc-1004" target="FXJXPnf7FUrhk9hKkWCc-988" edge="1">
          <mxGeometry relative="1" as="geometry" />
        </mxCell>
        <mxCell id="wYz5p7Y-mSLA2BZfrK7W-8" style="edgeStyle=orthogonalEdgeStyle;rounded=0;orthogonalLoop=1;jettySize=auto;html=1;exitX=0.5;exitY=1;exitDx=0;exitDy=0;entryX=0.5;entryY=1;entryDx=0;entryDy=0;entryPerimeter=0;" parent="1" source="FXJXPnf7FUrhk9hKkWCc-1003" target="FXJXPnf7FUrhk9hKkWCc-988" edge="1">
          <mxGeometry relative="1" as="geometry" />
        </mxCell>
        <mxCell id="wYz5p7Y-mSLA2BZfrK7W-10" style="edgeStyle=orthogonalEdgeStyle;rounded=0;orthogonalLoop=1;jettySize=auto;html=1;exitX=0.5;exitY=1;exitDx=0;exitDy=0;entryX=0.5;entryY=1;entryDx=0;entryDy=0;entryPerimeter=0;" parent="1" source="FXJXPnf7FUrhk9hKkWCc-980" target="FXJXPnf7FUrhk9hKkWCc-988" edge="1">
          <mxGeometry relative="1" as="geometry" />
        </mxCell>
        <mxCell id="wYz5p7Y-mSLA2BZfrK7W-12" style="edgeStyle=orthogonalEdgeStyle;rounded=0;orthogonalLoop=1;jettySize=auto;html=1;exitX=0.5;exitY=1;exitDx=0;exitDy=0;entryX=0.5;entryY=1;entryDx=0;entryDy=0;entryPerimeter=0;" parent="1" source="FXJXPnf7FUrhk9hKkWCc-979" target="FXJXPnf7FUrhk9hKkWCc-988" edge="1">
          <mxGeometry relative="1" as="geometry" />
        </mxCell>
        <mxCell id="wYz5p7Y-mSLA2BZfrK7W-13" style="edgeStyle=orthogonalEdgeStyle;rounded=0;orthogonalLoop=1;jettySize=auto;html=1;exitX=0.5;exitY=1;exitDx=0;exitDy=0;entryX=0.5;entryY=1;entryDx=0;entryDy=0;entryPerimeter=0;" parent="1" source="FXJXPnf7FUrhk9hKkWCc-968" target="FXJXPnf7FUrhk9hKkWCc-988" edge="1">
          <mxGeometry relative="1" as="geometry" />
        </mxCell>
        <mxCell id="wYz5p7Y-mSLA2BZfrK7W-14" style="edgeStyle=orthogonalEdgeStyle;rounded=0;orthogonalLoop=1;jettySize=auto;html=1;exitX=0.5;exitY=1;exitDx=0;exitDy=0;entryX=0.5;entryY=1;entryDx=0;entryDy=0;entryPerimeter=0;" parent="1" source="FXJXPnf7FUrhk9hKkWCc-712" target="FXJXPnf7FUrhk9hKkWCc-721" edge="1">
          <mxGeometry relative="1" as="geometry" />
        </mxCell>
        <mxCell id="wYz5p7Y-mSLA2BZfrK7W-15" style="edgeStyle=orthogonalEdgeStyle;rounded=0;orthogonalLoop=1;jettySize=auto;html=1;exitX=0.5;exitY=1;exitDx=0;exitDy=0;entryX=0.5;entryY=1;entryDx=0;entryDy=0;entryPerimeter=0;" parent="1" source="FXJXPnf7FUrhk9hKkWCc-700" target="FXJXPnf7FUrhk9hKkWCc-721" edge="1">
          <mxGeometry relative="1" as="geometry" />
        </mxCell>
        <mxCell id="wYz5p7Y-mSLA2BZfrK7W-16" style="edgeStyle=orthogonalEdgeStyle;rounded=0;orthogonalLoop=1;jettySize=auto;html=1;exitX=0.5;exitY=1;exitDx=0;exitDy=0;entryX=0.5;entryY=1;entryDx=0;entryDy=0;entryPerimeter=0;" parent="1" source="FXJXPnf7FUrhk9hKkWCc-516" target="FXJXPnf7FUrhk9hKkWCc-524" edge="1">
          <mxGeometry relative="1" as="geometry" />
        </mxCell>
        <mxCell id="wYz5p7Y-mSLA2BZfrK7W-18" style="edgeStyle=orthogonalEdgeStyle;rounded=0;orthogonalLoop=1;jettySize=auto;html=1;exitX=0.5;exitY=1;exitDx=0;exitDy=0;entryX=0.5;entryY=1;entryDx=0;entryDy=0;entryPerimeter=0;" parent="1" source="FXJXPnf7FUrhk9hKkWCc-515" target="FXJXPnf7FUrhk9hKkWCc-524" edge="1">
          <mxGeometry relative="1" as="geometry" />
        </mxCell>
        <mxCell id="wYz5p7Y-mSLA2BZfrK7W-19" style="edgeStyle=orthogonalEdgeStyle;rounded=0;orthogonalLoop=1;jettySize=auto;html=1;exitX=0.5;exitY=1;exitDx=0;exitDy=0;entryX=0.5;entryY=1;entryDx=0;entryDy=0;entryPerimeter=0;" parent="1" source="FXJXPnf7FUrhk9hKkWCc-503" target="FXJXPnf7FUrhk9hKkWCc-524" edge="1">
          <mxGeometry relative="1" as="geometry" />
        </mxCell>
        <mxCell id="wYz5p7Y-mSLA2BZfrK7W-23" style="edgeStyle=orthogonalEdgeStyle;rounded=0;orthogonalLoop=1;jettySize=auto;html=1;exitX=0.5;exitY=1;exitDx=0;exitDy=0;entryX=0.5;entryY=1;entryDx=0;entryDy=0;entryPerimeter=0;" parent="1" source="FXJXPnf7FUrhk9hKkWCc-259" target="FXJXPnf7FUrhk9hKkWCc-243" edge="1">
          <mxGeometry relative="1" as="geometry" />
        </mxCell>
        <mxCell id="wYz5p7Y-mSLA2BZfrK7W-24" style="edgeStyle=orthogonalEdgeStyle;rounded=0;orthogonalLoop=1;jettySize=auto;html=1;exitX=0.5;exitY=1;exitDx=0;exitDy=0;entryX=0.5;entryY=1;entryDx=0;entryDy=0;entryPerimeter=0;" parent="1" source="FXJXPnf7FUrhk9hKkWCc-257" target="FXJXPnf7FUrhk9hKkWCc-243" edge="1">
          <mxGeometry relative="1" as="geometry" />
        </mxCell>
        <mxCell id="wYz5p7Y-mSLA2BZfrK7W-25" style="edgeStyle=orthogonalEdgeStyle;rounded=0;orthogonalLoop=1;jettySize=auto;html=1;exitX=0.5;exitY=1;exitDx=0;exitDy=0;entryX=0.5;entryY=1;entryDx=0;entryDy=0;entryPerimeter=0;" parent="1" source="FXJXPnf7FUrhk9hKkWCc-235" target="FXJXPnf7FUrhk9hKkWCc-243" edge="1">
          <mxGeometry relative="1" as="geometry" />
        </mxCell>
        <mxCell id="wYz5p7Y-mSLA2BZfrK7W-26" style="edgeStyle=orthogonalEdgeStyle;rounded=0;orthogonalLoop=1;jettySize=auto;html=1;exitX=0.5;exitY=1;exitDx=0;exitDy=0;entryX=0.5;entryY=1;entryDx=0;entryDy=0;entryPerimeter=0;" parent="1" source="FXJXPnf7FUrhk9hKkWCc-234" target="FXJXPnf7FUrhk9hKkWCc-243" edge="1">
          <mxGeometry relative="1" as="geometry" />
        </mxCell>
        <mxCell id="wYz5p7Y-mSLA2BZfrK7W-27" style="edgeStyle=orthogonalEdgeStyle;rounded=0;orthogonalLoop=1;jettySize=auto;html=1;exitX=0.5;exitY=1;exitDx=0;exitDy=0;entryX=0.5;entryY=1;entryDx=0;entryDy=0;entryPerimeter=0;" parent="1" source="FXJXPnf7FUrhk9hKkWCc-222" target="FXJXPnf7FUrhk9hKkWCc-243" edge="1">
          <mxGeometry relative="1" as="geometry" />
        </mxCell>
        <mxCell id="wYz5p7Y-mSLA2BZfrK7W-28" style="edgeStyle=orthogonalEdgeStyle;rounded=0;orthogonalLoop=1;jettySize=auto;html=1;exitX=0.5;exitY=1;exitDx=0;exitDy=0;entryX=0.5;entryY=1;entryDx=0;entryDy=0;entryPerimeter=0;" parent="1" source="FXJXPnf7FUrhk9hKkWCc-113" target="FXJXPnf7FUrhk9hKkWCc-121" edge="1">
          <mxGeometry relative="1" as="geometry" />
        </mxCell>
        <mxCell id="wYz5p7Y-mSLA2BZfrK7W-30" style="edgeStyle=orthogonalEdgeStyle;rounded=0;orthogonalLoop=1;jettySize=auto;html=1;exitX=0.5;exitY=1;exitDx=0;exitDy=0;entryX=0.5;entryY=1;entryDx=0;entryDy=0;entryPerimeter=0;" parent="1" source="FXJXPnf7FUrhk9hKkWCc-112" target="FXJXPnf7FUrhk9hKkWCc-121" edge="1">
          <mxGeometry relative="1" as="geometry" />
        </mxCell>
        <mxCell id="wYz5p7Y-mSLA2BZfrK7W-31" style="edgeStyle=orthogonalEdgeStyle;rounded=0;orthogonalLoop=1;jettySize=auto;html=1;exitX=0.5;exitY=1;exitDx=0;exitDy=0;entryX=0.5;entryY=1;entryDx=0;entryDy=0;entryPerimeter=0;" parent="1" source="FXJXPnf7FUrhk9hKkWCc-100" target="FXJXPnf7FUrhk9hKkWCc-121" edge="1">
          <mxGeometry relative="1" as="geometry" />
        </mxCell>
        <mxCell id="oCUTgHJFBx0IO8--v7X--1" style="edgeStyle=orthogonalEdgeStyle;rounded=0;orthogonalLoop=1;jettySize=auto;html=1;exitX=0.5;exitY=1;exitDx=0;exitDy=0;exitPerimeter=0;entryX=0.558;entryY=0.039;entryDx=0;entryDy=0;entryPerimeter=0;" edge="1" parent="1" source="yLuNLy4TpHZ7oGF-VzOZ-23" target="yLuNLy4TpHZ7oGF-VzOZ-34">
          <mxGeometry relative="1" as="geometry" />
        </mxCell>
        <mxCell id="oCUTgHJFBx0IO8--v7X--2" style="edgeStyle=orthogonalEdgeStyle;rounded=0;orthogonalLoop=1;jettySize=auto;html=1;exitX=0;exitY=0.5;exitDx=0;exitDy=0;exitPerimeter=0;entryX=1;entryY=0.5;entryDx=0;entryDy=0;entryPerimeter=0;" edge="1" parent="1" source="yLuNLy4TpHZ7oGF-VzOZ-23" target="yLuNLy4TpHZ7oGF-VzOZ-24">
          <mxGeometry relative="1" as="geometry" />
        </mxCell>
        <mxCell id="oCUTgHJFBx0IO8--v7X--3" style="edgeStyle=orthogonalEdgeStyle;rounded=0;orthogonalLoop=1;jettySize=auto;html=1;exitX=1;exitY=0.5;exitDx=0;exitDy=0;entryX=0.055;entryY=0.415;entryDx=0;entryDy=0;entryPerimeter=0;" edge="1" parent="1" source="yLuNLy4TpHZ7oGF-VzOZ-37" target="yLuNLy4TpHZ7oGF-VzOZ-45">
          <mxGeometry relative="1" as="geometry" />
        </mxCell>
        <mxCell id="oCUTgHJFBx0IO8--v7X--4" value="no" style="text;html=1;align=center;verticalAlign=middle;resizable=0;points=[];autosize=1;strokeColor=none;fillColor=none;" vertex="1" parent="1">
          <mxGeometry x="-2100" y="2195" width="40" height="30" as="geometry" />
        </mxCell>
      </root>
    </mxGraphModel>
  </diagram>
</mxfile>
